<?xml version="1.0" standalone="no"?>
<!DOCTYPE svg PUBLIC "-//W3C//DTD SVG 1.1//EN"
 "http://www.w3.org/Graphics/SVG/1.1/DTD/svg11.dtd">
<svg width="2654px" height="1998px" version="1.1"
 xmlns="http://www.w3.org/2000/svg" xmlns:xlink="http://www.w3.org/1999/xlink">
<line x1="2651.875024" y1="1995.446009" x2="1.874997" y2="1995.505529"  fill="none" stroke ="green" stroke-width="1" />
<path d="M 0.667864,1992.999594 A781728.836027,781728.836027 0.000000 0,1 0.650944,1072.000371" fill="none" stroke ="blue" stroke-width="1" />
<line x1="1543.572390" y1="175.595336" x2="1540.616308" y2="255.578480"  fill="none" stroke ="green" stroke-width="1" />
<path d="M 1112.580900,896.939976 A52.319326,39.622512 -19.120307 1,1 1114.810967,896.660748" fill="none" stroke ="red" stroke-width="1" />
<path d="M 1795.876701,264.918415 A14567.533611,14567.533611 0.000000 0,1 1813.980366,39.821803" fill="none" stroke ="blue" stroke-width="1" />
<path d="M 1017.579902,1379.421186 A49.094113,33.859475 -37.025435 1,1 1019.372426,1378.904429" fill="none" stroke ="red" stroke-width="1" />
<line x1="1758.633033" y1="283.161933" x2="1775.086407" y2="56.835846"  fill="none" stroke ="green" stroke-width="1" />
<ellipse transform="translate(1126.611147 671.178076) rotate(-13.918333)" rx="53.932846" ry="42.144931" stroke="red" fill="none" stroke-width= "1" /> 
<ellipse transform="translate(670.159040 1103.660956) rotate(-44.582216)" rx="53.747424" ry="39.417570" stroke="red" fill="none" stroke-width= "1" /> 
<line x1="1527.737533" y1="109.361031" x2="1526.115691" y2="154.347626"  fill="none" stroke ="green" stroke-width="1" />
<ellipse transform="translate(910.404328 486.490163) rotate(-20.201202)" rx="56.632058" ry="46.401899" stroke="red" fill="none" stroke-width= "1" /> 
<line x1="1703.667112" y1="298.079237" x2="1717.479906" y2="84.414105"  fill="none" stroke ="green" stroke-width="1" />
<ellipse transform="translate(1407.228917 1064.429171) rotate(-4.334244)" rx="50.016650" ry="34.919001" stroke="red" fill="none" stroke-width= "1" /> 
<ellipse transform="translate(1358.367353 1250.202003) rotate(-12.022715)" rx="48.103745" ry="32.653986" stroke="red" fill="none" stroke-width= "1" /> 
<ellipse transform="translate(833.166315 1050.296177) rotate(-37.958411)" rx="52.599341" ry="38.945341" stroke="red" fill="none" stroke-width= "1" /> 
<path d="M 1719.814623,301.120310 A33593.365841,33593.365841 0.000000 0,1 1735.429849,76.958366" fill="none" stroke ="blue" stroke-width="1" />
<line x1="1600.261953" y1="146.795190" x2="1594.262164" y2="268.057570"  fill="none" stroke ="green" stroke-width="1" />
<line x1="1618.656147" y1="139.278786" x2="1612.117776" y2="273.075779"  fill="none" stroke ="green" stroke-width="1" />
<line x1="1620.974390" y1="274.507703" x2="1627.787111" y2="128.225695"  fill="none" stroke ="green" stroke-width="1" />
<line x1="1684.246570" y1="294.217339" x2="1696.231559" y2="94.411383"  fill="none" stroke ="green" stroke-width="1" />
<line x1="1534.742800" y1="251.888803" x2="1537.465061" y2="179.350234"  fill="none" stroke ="green" stroke-width="1" />
<line x1="1577.857513" y1="158.114073" x2="1573.566973" y2="263.143055"  fill="none" stroke ="green" stroke-width="1" />
<path d="M 1772.980334,277.058883 A7062.591303,7062.591303 0.000000 0,1 1790.569322,47.052902" fill="none" stroke ="blue" stroke-width="1" />
<path d="M 0.690799,552.998779 A149834.103542,149834.103542 0.000000 0,1 0.731607,0.999486" fill="none" stroke ="blue" stroke-width="1" />
<path d="M 1548.016512,1007.275302 A31.439740,31.439740 0.000000 1,1 1542.462923,1069.206392" fill="none" stroke ="blue" stroke-width="1" />
<path d="M 1559.121453,131.809538 A21.095087,11.211119 -67.640190 1,1 1564.487783,116.831553" fill="none" stroke ="red" stroke-width="1" />
<ellipse transform="translate(1451.476291 945.780049) rotate(0.903214)" rx="51.297641" ry="36.256880" stroke="red" fill="none" stroke-width= "1" /> 
<line x1="1609.163812" y1="143.058295" x2="1603.453715" y2="268.140006"  fill="none" stroke ="green" stroke-width="1" />
<line x1="1766.148410" y1="62.977670" x2="1749.095534" y2="291.760998"  fill="none" stroke ="green" stroke-width="1" />
<ellipse transform="translate(1066.830303 547.277836) rotate(-14.370743)" rx="55.457194" ry="44.407606" stroke="red" fill="none" stroke-width= "1" /> 
<path d="M 917.755459,968.689665 A53.006254,40.026592 -32.432270 1,1 919.629323,968.304533" fill="none" stroke ="red" stroke-width="1" />
<ellipse transform="translate(1652.449162 983.982542) rotate(11.867013)" rx="50.717285" ry="34.368579" stroke="red" fill="none" stroke-width= "1" /> 
<path d="M 1925.467393,1182.866735 A50.514164,29.692492 21.802384 1,1 1924.965324,1185.997449" fill="none" stroke ="red" stroke-width="1" />
<ellipse transform="translate(2022.687113 1303.980456) rotate(22.451709)" rx="49.556876" ry="28.261659" stroke="red" fill="none" stroke-width= "1" /> 
<path d="M 1663.315765,287.056277 A6010.444681,6010.444681 0.000000 0,1 1673.861595,105.136259" fill="none" stroke ="blue" stroke-width="1" />
<path d="M 1551.488724,209.984456 A73.326315,3.332282 -88.294043 1,1 1551.548130,207.986862" fill="none" stroke ="red" stroke-width="1" />
<line x1="1488.867971" y1="251.887846" x2="1489.775818" y2="199.381930"  fill="none" stroke ="green" stroke-width="1" />
<line x1="1496.003055" y1="201.863031" x2="1495.282304" y2="254.370296"  fill="none" stroke ="green" stroke-width="1" />
<ellipse transform="translate(1237.920384 1352.392972) rotate(-25.645503)" rx="47.430633" ry="32.270313" stroke="red" fill="none" stroke-width= "1" /> 
<line x1="1686.070740" y1="68.230322" x2="1688.787220" y2="24.493768"  fill="none" stroke ="green" stroke-width="1" />
<path d="M 872.656936,880.005024 A54.073017,41.614925 -31.530388 1,1 874.521872,879.648152" fill="none" stroke ="red" stroke-width="1" />
<ellipse transform="translate(685.900708 1642.149479) rotate(-45.882874)" rx="50.715364" ry="32.908809" stroke="red" fill="none" stroke-width= "1" /> 
<path d="M 1755.993307,66.999519 A69401.226552,69401.226552 0.000000 0,1 1739.154615,295.861156" fill="none" stroke ="blue" stroke-width="1" />
<path d="M 1440.780037,177.138318 A20.799875,11.906491 -41.961722 1,1 1451.425884,150.680917" fill="none" stroke ="red" stroke-width="1" />
<line x1="1606.505145" y1="271.916337" x2="1612.786835" y2="138.167826"  fill="none" stroke ="green" stroke-width="1" />
<ellipse transform="translate(817.521241 655.470589) rotate(-29.477919)" rx="55.774369" ry="44.437113" stroke="red" fill="none" stroke-width= "1" /> 
<ellipse transform="translate(2016.678430 995.904606) rotate(27.003413)" rx="53.376566" ry="31.612400" stroke="red" fill="none" stroke-width= "1" /> 
<line x1="1694.802493" y1="294.321837" x2="1708.049602" y2="89.370127"  fill="none" stroke ="green" stroke-width="1" />
<path d="M 1725.476709,81.967186 A14779.534962,14779.534962 0.000000 0,1 1710.421186,296.955223" fill="none" stroke ="blue" stroke-width="1" />
<ellipse transform="translate(1687.510096 540.777125) rotate(23.654105)" rx="55.892076" ry="39.392023" stroke="red" fill="none" stroke-width= "1" /> 
<path d="M 1302.893980,1035.090075 A50.673027,36.462837 -9.911842 1,1 1304.828331,1034.952763" fill="none" stroke ="red" stroke-width="1" />
<ellipse transform="translate(927.682543 1122.220517) rotate(-35.996736)" rx="51.408223" ry="37.309708" stroke="red" fill="none" stroke-width= "1" /> 
<path d="M 535.412420,1785.144623 A51.767773,32.731699 -49.291339 1,1 599.903146,1748.462139" fill="none" stroke ="red" stroke-width="1" />
<line x1="1798.713352" y1="46.727634" x2="1781.360109" y2="271.835308"  fill="none" stroke ="green" stroke-width="1" />
<path d="M 1691.552733,99.975582 A13147.409842,13147.409842 0.000000 0,1 1679.798934,289.986100" fill="none" stroke ="blue" stroke-width="1" />
<line x1="1790.996987" y1="265.654323" x2="1808.731672" y2="40.672822"  fill="none" stroke ="green" stroke-width="1" />
<ellipse transform="translate(1083.028643 1204.005826) rotate(-30.994892)" rx="49.600124" ry="35.340290" stroke="red" fill="none" stroke-width= "1" /> 
<ellipse transform="translate(729.068492 1449.924551) rotate(-45.211514)" rx="51.312814" ry="34.680568" stroke="red" fill="none" stroke-width= "1" /> 
<ellipse transform="translate(926.097470 1509.785779) rotate(-43.231484)" rx="49.000413" ry="32.613982" stroke="red" fill="none" stroke-width= "1" /> 
<path d="M 1744.263762,290.126791 A8197.230222,8197.230222 0.000000 0,1 1760.150733,63.012650" fill="none" stroke ="blue" stroke-width="1" />
<line x1="1702.074169" y1="95.557759" x2="1689.426803" y2="293.208300"  fill="none" stroke ="green" stroke-width="1" />
<path d="M 1441.054435,177.585835 A13.485015,6.688893 -37.017973 1,1 1424.394713,195.506207" fill="none" stroke ="red" stroke-width="1" />
<line x1="1636.825611" y1="130.557277" x2="1629.265121" y2="275.619273"  fill="none" stroke ="green" stroke-width="1" />
<path d="M 1635.234846,277.961845 A16034.352001,16034.352001 0.000000 0,1 1643.778000,121.927119" fill="none" stroke ="blue" stroke-width="1" />
<line x1="1441.734855" y1="246.877271" x2="1441.451043" y2="229.361615"  fill="none" stroke ="green" stroke-width="1" />
<ellipse transform="translate(1960.410117 747.789541) rotate(28.791952)" rx="55.763800" ry="34.622642" stroke="red" fill="none" stroke-width= "1" /> 
<path d="M 1414.949788,789.745106 A52.434592,38.108456 1.218594 1,1 1413.024206,789.735500" fill="none" stroke ="red" stroke-width="1" />
<ellipse transform="translate(893.377966 1413.057530) rotate(-42.968640)" rx="49.721031" ry="34.112236" stroke="red" fill="none" stroke-width= "1" /> 
<line x1="1577.043806" y1="263.183563" x2="1581.533456" y2="154.412498"  fill="none" stroke ="green" stroke-width="1" />
<path d="M 1697.587658,295.037797 A27184.802037,27184.802037 0.000000 0,1 1711.550730,90.039603" fill="none" stroke ="blue" stroke-width="1" />
<ellipse transform="translate(1563.371553 657.484206) rotate(14.131122)" rx="54.368537" ry="39.240561" stroke="red" fill="none" stroke-width= "1" /> 
<ellipse transform="translate(1710.284150 776.430727) rotate(19.048220)" rx="53.527653" ry="36.440370" stroke="red" fill="none" stroke-width= "1" /> 
<path d="M 1044.073104,1478.886812 A48.225141,32.377348 -38.749074 1,1 1045.182418,1478.473365" fill="none" stroke ="red" stroke-width="1" />
<line x1="1677.893902" y1="105.537910" x2="1667.234168" y2="286.822618"  fill="none" stroke ="green" stroke-width="1" />
<ellipse transform="translate(970.267606 1242.173052) rotate(-36.541340)" rx="50.224915" ry="35.497663" stroke="red" fill="none" stroke-width= "1" /> 
<ellipse transform="translate(2105.784309 1261.792596) rotate(26.080869)" rx="50.893682" ry="28.431103" stroke="red" fill="none" stroke-width= "1" /> 
<ellipse transform="translate(627.744749 1345.225431) rotate(-45.608213)" rx="53.058412" ry="36.923548" stroke="red" fill="none" stroke-width= "1" /> 
<ellipse transform="translate(2113.912754 1391.347659) rotate(24.598291)" rx="49.632994" ry="26.722655" stroke="red" fill="none" stroke-width= "1" /> 
<line x1="1658.404329" y1="119.320689" x2="1649.313187" y2="281.801601"  fill="none" stroke ="green" stroke-width="1" />
<ellipse transform="translate(1055.860904 980.114648) rotate(-25.463507)" rx="51.620702" ry="38.336874" stroke="red" fill="none" stroke-width= "1" /> 
<path d="M 2392.207536,1599.779845 A51.008773,21.775389 28.348115 1,1 2394.655941,1600.827209" fill="none" stroke ="red" stroke-width="1" />
<path d="M 1725.133843,298.008610 A17111.009392,17111.009392 0.000000 0,1 1741.252289,71.019602" fill="none" stroke ="blue" stroke-width="1" />
<line x1="1461.247863" y1="218.109851" x2="1460.491952" y2="249.401982"  fill="none" stroke ="green" stroke-width="1" />
<ellipse transform="translate(1516.598731 525.012301) rotate(14.656078)" rx="55.562205" ry="41.300192" stroke="red" fill="none" stroke-width= "1" /> 
<ellipse transform="translate(772.073551 958.586979) rotate(-38.819858)" rx="53.664826" ry="40.661293" stroke="red" fill="none" stroke-width= "1" /> 
<ellipse transform="translate(1086.343765 1106.902443) rotate(-27.738962)" rx="50.325199" ry="36.272640" stroke="red" fill="none" stroke-width= "1" /> 
<ellipse transform="translate(821.851300 1294.708337) rotate(-43.103347)" rx="51.007668" ry="35.937385" stroke="red" fill="none" stroke-width= "1" /> 
<line x1="1732.416566" y1="295.663221" x2="1748.122023" y2="73.124790"  fill="none" stroke ="green" stroke-width="1" />
<line x1="1511.022257" y1="256.863099" x2="1511.964103" y2="189.376244"  fill="none" stroke ="green" stroke-width="1" />
<line x1="1672.619983" y1="290.738717" x2="1680.898926" y2="145.498110"  fill="none" stroke ="green" stroke-width="1" />
<path d="M 1182.884090,1052.059420 A50.738427,36.951873 -18.706950 1,1 1184.814961,1051.790296" fill="none" stroke ="red" stroke-width="1" />
<ellipse transform="translate(1248.010252 1094.210063) rotate(-15.992161)" rx="49.651337" ry="35.258236" stroke="red" fill="none" stroke-width= "1" /> 
<path d="M 1544.933015,1225.006196 A47.782449,31.862097 0.704584 1,1 1543.015420,1224.989605" fill="none" stroke ="red" stroke-width="1" />
<path d="M 1714.970504,299.944635 A7848.704098,7848.704098 0.000000 0,1 1730.131390,77.175546" fill="none" stroke ="blue" stroke-width="1" />
<path d="M 1640.779719,280.028100 A4262.839979,4262.839979 0.000000 0,1 1649.700318,118.126161" fill="none" stroke ="blue" stroke-width="1" />
<line x1="1509.057181" y1="193.114172" x2="1506.840836" y2="258.166424"  fill="none" stroke ="green" stroke-width="1" />
<line x1="1473.725256" y1="214.369010" x2="1473.379449" y2="251.877346"  fill="none" stroke ="green" stroke-width="1" />
<ellipse transform="translate(1385.351239 399.574954) rotate(9.149092)" rx="56.911909" ry="44.056399" stroke="red" fill="none" stroke-width= "1" /> 
<path d="M 1333.087269,622.524168 A54.782968,41.964784 1.719471 1,1 1335.019216,622.566024" fill="none" stroke ="red" stroke-width="1" />
<ellipse transform="translate(963.827130 670.208481) rotate(-21.780271)" rx="54.746381" ry="43.325721" stroke="red" fill="none" stroke-width= "1" /> 
<ellipse transform="translate(1590.103528 1343.745296) rotate(0.939157)" rx="46.795377" ry="30.401307" stroke="red" fill="none" stroke-width= "1" /> 
<ellipse transform="translate(791.936026 1531.355390) rotate(-44.709933)" rx="50.124553" ry="33.354694" stroke="red" fill="none" stroke-width= "1" /> 
<path d="M 1784.623579,267.107255 A9318.754965,9318.754965 0.000000 0,1 1802.225882,42.110856" fill="none" stroke ="blue" stroke-width="1" />
<path d="M 1681.614203,143.005161 A381.031273,381.031273 0.000000 0,1 1683.456060,100.145022" fill="none" stroke ="blue" stroke-width="1" />
<path d="M 1599.370820,267.101802 A13765.630515,13765.630515 0.000000 0,1 1605.358593,141.122935" fill="none" stroke ="blue" stroke-width="1" />
<path d="M 1434.912692,174.279808 A20.445134,10.673655 -45.728026 1,1 1419.639852,195.142443" fill="none" stroke ="red" stroke-width="1" />
<line x1="1668.430773" y1="110.497988" x2="1658.301401" y2="285.490499"  fill="none" stroke ="green" stroke-width="1" />
<path d="M 1587.205480,152.966385 A16979.681539,16979.681539 0.000000 0,1 1582.101715,264.858219" fill="none" stroke ="blue" stroke-width="1" />
<ellipse transform="translate(995.186197 781.483415) rotate(-23.768317)" rx="53.441203" ry="41.504705" stroke="red" fill="none" stroke-width= "1" /> 
<path d="M 1563.374082,215.932935 A83.494828,3.543174 -87.638990 1,1 1563.411654,215.016797" fill="none" stroke ="red" stroke-width="1" />
<path d="M 1568.364077,261.950500 A1035.086749,1035.086749 0.000000 0,1 1571.489919,157.039528" fill="none" stroke ="blue" stroke-width="1" />
<path d="M 1653.152236,282.026213 A2655.110011,2655.110011 0.000000 0,1 1662.557465,111.136183" fill="none" stroke ="blue" stroke-width="1" />
<line x1="1476.437785" y1="250.620651" x2="1476.835593" y2="210.624608"  fill="none" stroke ="green" stroke-width="1" />
<ellipse transform="translate(1685.651442 1080.473480) rotate(11.306081)" rx="49.943673" ry="32.911469" stroke="red" fill="none" stroke-width= "1" /> 
<path d="M 1632.099719,276.044131 A6698.531951,6698.531951 0.000000 0,1 1639.807854,125.987968" fill="none" stroke ="blue" stroke-width="1" />
<ellipse transform="translate(1412.320782 715.688188) rotate(4.072956)" rx="53.646522" ry="39.544055" stroke="red" fill="none" stroke-width= "1" /> 
<ellipse transform="translate(1581.051015 818.411930) rotate(11.692584)" rx="52.797830" ry="36.961963" stroke="red" fill="none" stroke-width= "1" /> 
<path d="M 1933.156404,877.483744 A54.451064,33.805974 26.275744 1,1 1934.177976,877.786908" fill="none" stroke ="red" stroke-width="1" />
<ellipse transform="translate(1983.645090 1384.086575) rotate(19.698833)" rx="48.448484" ry="27.748341" stroke="red" fill="none" stroke-width= "1" /> 
<ellipse transform="translate(431.756820 1820.601687) rotate(-52.401960)" rx="52.859161" ry="31.934007" stroke="red" fill="none" stroke-width= "1" /> 
<path d="M 1518.709076,147.075570 A13.346146,6.936278 -75.113439 1,1 1520.212589,133.566090" fill="none" stroke ="red" stroke-width="1" />
<ellipse transform="translate(770.853036 1179.079259) rotate(-42.913662)" rx="52.185837" ry="37.642561" stroke="red" fill="none" stroke-width= "1" /> 
<ellipse transform="translate(1365.668826 1343.595541) rotate(-13.804252)" rx="47.152395" ry="31.446865" stroke="red" fill="none" stroke-width= "1" /> 
<ellipse transform="translate(588.179915 1473.739106) rotate(-46.946779)" rx="52.689744" ry="35.705825" stroke="red" fill="none" stroke-width= "1" /> 
<path d="M 1692.674557,37.132124 A10.435757,10.435757 0.000000 0,1 1703.540720,22.234330" fill="none" stroke ="blue" stroke-width="1" />
<line x1="1744.663791" y1="75.556934" x2="1729.081649" y2="295.604227"  fill="none" stroke ="green" stroke-width="1" />
<line x1="1522.651973" y1="254.401548" x2="1525.086517" y2="183.149311"  fill="none" stroke ="green" stroke-width="1" />
<line x1="1366.682907" y1="203.029612" x2="1351.765331" y2="233.070541"  fill="none" stroke ="green" stroke-width="1" />
<path d="M 1524.699771,377.051265 A56.836022,42.552869 18.190793 1,1 1522.785797,376.793459" fill="none" stroke ="red" stroke-width="1" />
<ellipse transform="translate(1717.010866 1332.360273) rotate(7.804368)" rx="47.421235" ry="29.920639" stroke="red" fill="none" stroke-width= "1" /> 
<path d="M 510.358700,1479.422890 A54.119771,36.483397 -49.921699 1,1 511.046412,1477.388225" fill="none" stroke ="red" stroke-width="1" />
<path d="M 1471.501107,163.095496 A25.314748,2.752585 -86.795609 1,1 1471.386942,165.073268" fill="none" stroke ="red" stroke-width="1" />
<ellipse transform="translate(1563.088501 1124.168182) rotate(4.304074)" rx="49.437597" ry="33.351456" stroke="red" fill="none" stroke-width= "1" /> 
<ellipse transform="translate(594.777337 766.287193) rotate(-42.297504)" rx="56.482367" ry="44.680611" stroke="red" fill="none" stroke-width= "1" /> 
<ellipse transform="translate(1860.585446 1008.601317) rotate(20.531088)" rx="51.867944" ry="32.515192" stroke="red" fill="none" stroke-width= "1" /> 
<line x1="1862.278073" y1="1095.966814" x2="1868.793274" y2="1112.109781"  fill="none" stroke ="green" stroke-width="1" />
<ellipse transform="translate(1726.775017 1216.425350) rotate(10.539566)" rx="48.633314" ry="31.195194" stroke="red" fill="none" stroke-width= "1" /> 
<path d="M 1908.493640,1297.631585 A49.273505,29.501948 18.194088 1,1 1910.365895,1298.003811" fill="none" stroke ="red" stroke-width="1" />
<line x1="1759.882605" y1="30.799738" x2="1770.307562" y2="0.515725"  fill="none" stroke ="green" stroke-width="1" />
<line x1="1691.504205" y1="48.106411" x2="1690.438405" y2="69.365645"  fill="none" stroke ="green" stroke-width="1" />
<line x1="1453.902615" y1="249.337763" x2="1454.469276" y2="223.127038"  fill="none" stroke ="green" stroke-width="1" />
<line x1="1790.082939" y1="233.093500" x2="1788.119862" y2="266.874701"  fill="none" stroke ="green" stroke-width="1" />
<ellipse transform="translate(1652.835328 372.396048) rotate(26.520004)" rx="57.781632" ry="41.282932" stroke="red" fill="none" stroke-width= "1" /> 
<ellipse transform="translate(2005.494121 1119.394808) rotate(25.076984)" rx="51.757367" ry="30.234433" stroke="red" fill="none" stroke-width= "1" /> 
<path d="M 1533.248282,287.744841 A586.773701,586.773701 0.000000 0,1 1530.847002,181.921901" fill="none" stroke ="blue" stroke-width="1" />
<ellipse transform="translate(1260.692559 753.335730) rotate(-7.436980)" rx="53.029324" ry="40.074022" stroke="red" fill="none" stroke-width= "1" /> 
<ellipse transform="translate(1266.181213 1184.197364) rotate(-17.552433)" rx="48.653605" ry="34.461621" stroke="red" fill="none" stroke-width= "1" /> 
<ellipse transform="translate(1157.952856 1268.994144) rotate(-28.771006)" rx="48.582518" ry="33.741882" stroke="red" fill="none" stroke-width= "1" /> 
<path d="M 2233.456323,1429.728603 A50.658728,26.424729 26.560486 1,1 2233.950914,1429.905729" fill="none" stroke ="red" stroke-width="1" />
<path d="M 2150.938321,1501.043443 A49.185031,24.269366 23.868884 1,1 2153.173199,1502.078738" fill="none" stroke ="red" stroke-width="1" />
<path d="M 1427.968560,1191.853698 A49.090973,33.716691 -4.814259 1,1 1429.932097,1191.771739" fill="none" stroke ="red" stroke-width="1" />
<path d="M 694.064085,1184.462395 A58.938999,58.938999 0.000000 0,1 616.349781,1264.254537" fill="none" stroke ="blue" stroke-width="1" />
<line x1="1179.062250" y1="1433.321016" x2="1187.927293" y2="1447.465475"  fill="none" stroke ="green" stroke-width="1" />
<ellipse transform="translate(996.811622 340.926696) rotate(-11.719940)" rx="57.647784" ry="47.788446" stroke="red" fill="none" stroke-width= "1" /> 
<ellipse transform="translate(1206.085108 426.053224) rotate(-2.418605)" rx="56.308476" ry="45.377060" stroke="red" fill="none" stroke-width= "1" /> 
<ellipse transform="translate(1815.822150 712.854322) rotate(24.445451)" rx="54.896878" ry="36.221518" stroke="red" fill="none" stroke-width= "1" /> 
<ellipse transform="translate(1793.231455 884.363980) rotate(20.205858)" rx="52.764703" ry="34.607691" stroke="red" fill="none" stroke-width= "1" /> 
<ellipse transform="translate(583.509403 1581.770274) rotate(-47.509893)" rx="52.401521" ry="34.286420" stroke="red" fill="none" stroke-width= "1" /> 
<line x1="1373.260613" y1="189.441381" x2="1366.864661" y2="202.508083"  fill="none" stroke ="green" stroke-width="1" />
<path d="M 744.527821,407.066340 A57.570984,47.821899 -29.254301 1,1 743.227688,407.284800" fill="none" stroke ="red" stroke-width="1" />
<path d="M 1197.977175,580.550486 A55.261741,43.617290 -6.202132 1,1 1199.933545,580.491047" fill="none" stroke ="red" stroke-width="1" />
<ellipse transform="translate(510.822662 625.963679) rotate(-42.145087)" rx="58.111335" ry="47.369776" stroke="red" fill="none" stroke-width= "1" /> 
<ellipse transform="translate(667.305321 612.424445) rotate(-37.600096)" rx="56.882219" ry="46.114099" stroke="red" fill="none" stroke-width= "1" /> 
<line x1="1588.339459" y1="265.724180" x2="1591.901597" y2="213.126801"  fill="none" stroke ="green" stroke-width="1" />
<path d="M 1813.647528,657.538456 A56.174538,37.272681 26.279341 1,1 1815.474844,658.002806" fill="none" stroke ="red" stroke-width="1" />
<ellipse transform="translate(2290.894733 1273.765842) rotate(30.424319)" rx="52.759812" ry="27.127154" stroke="red" fill="none" stroke-width= "1" /> 
<path d="M 2308.799728,1387.973813 A51.983963,26.625594 29.468929 1,1 2310.823258,1388.754790" fill="none" stroke ="red" stroke-width="1" />
<ellipse transform="translate(2347.190225 1487.270101) rotate(28.737292)" rx="50.925499" ry="24.925817" stroke="red" fill="none" stroke-width= "1" /> 
<ellipse transform="translate(431.512645 1677.597734) rotate(-51.936526)" rx="53.650423" ry="34.138244" stroke="red" fill="none" stroke-width= "1" /> 
<line x1="1785.614369" y1="-0.043660" x2="1790.671595" y2="18.784000"  fill="none" stroke ="green" stroke-width="1" />
<path d="M 1432.516235,174.313240 A13.753381,6.487835 -37.450116 1,1 1446.495071,156.462212" fill="none" stroke ="red" stroke-width="1" />
<line x1="1518.881187" y1="186.859052" x2="1516.659220" y2="255.658402"  fill="none" stroke ="green" stroke-width="1" />
<line x1="1466.598200" y1="251.825758" x2="1467.284361" y2="213.132259"  fill="none" stroke ="green" stroke-width="1" />
<path d="M 750.579639,775.868991 A54.909801,42.718720 -37.885334 1,1 748.767096,776.275051" fill="none" stroke ="red" stroke-width="1" />
<path d="M 1858.425521,1377.432198 A47.936063,28.660821 14.639380 1,1 1860.318766,1377.727012" fill="none" stroke ="red" stroke-width="1" />
<path d="M 1101.570508,1480.747219 A46.679767,32.484205 -34.241558 0,1 1177.680277,1432.814260" fill="none" stroke ="red" stroke-width="1" />
<line x1="1765.512869" y1="13.623814" x2="1768.415546" y2="7.002368"  fill="none" stroke ="green" stroke-width="1" />
<path d="M 1554.910842,130.944601 A9.768967,5.905473 -66.643119 0,1 1544.981896,124.590466" fill="none" stroke ="red" stroke-width="1" />
<line x1="1343.202222" y1="240.058420" x2="1369.965566" y2="184.660308"  fill="none" stroke ="green" stroke-width="1" />
<path d="M 1867.493206,1110.778475 A50.592015,31.595066 16.087284 1,1 1862.006896,1096.552163" fill="none" stroke ="red" stroke-width="1" />
<ellipse transform="translate(356.320734 1600.739976) rotate(-54.283153)" rx="54.804358" ry="35.915200" stroke="red" fill="none" stroke-width= "1" /> 
<path d="M 141.153566,1813.305191 A379.025081,379.025081 0.000000 0,1 285.494492,1972.924675" fill="none" stroke ="blue" stroke-width="1" />
<path d="M 1519.306653,153.933822 A20.025538,11.352280 -68.856598 1,1 1520.643643,123.731370" fill="none" stroke ="red" stroke-width="1" />
<line x1="1448.149859" y1="228.077392" x2="1447.418583" y2="246.896123"  fill="none" stroke ="green" stroke-width="1" />
<path d="M 1532.174635,286.034049 A58.007661,41.567715 17.406795 1,1 1423.624896,247.973410" fill="none" stroke ="red" stroke-width="1" />
<path d="M 866.818795,266.120100 A58.409984,47.497712 -20.190343 1,1 760.418857,289.566456" fill="none" stroke ="red" stroke-width="1" />
<path d="M 2276.514442,1545.751709 A35.075159,5.044915 22.914637 1,1 2277.366091,1546.101833" fill="none" stroke ="red" stroke-width="1" />
<line x1="1438.439171" y1="233.123460" x2="1438.500450" y2="245.623159"  fill="none" stroke ="green" stroke-width="1" />
<ellipse transform="translate(618.470011 509.561364) rotate(-37.027255)" rx="58.053972" ry="48.125919" stroke="red" fill="none" stroke-width= "1" /> 
<path d="M 1894.205999,504.710040 A57.554583,37.372695 30.454588 1,1 1892.411360,504.197445" fill="none" stroke ="red" stroke-width="1" />
<path d="M 1542.503001,1070.579839 A48.631179,34.528312 2.886564 1,1 1547.659690,1004.622410" fill="none" stroke ="red" stroke-width="1" />
<ellipse transform="translate(2197.292893 1167.161631) rotate(29.717300)" rx="53.145611" ry="28.836410" stroke="red" fill="none" stroke-width= "1" /> 
<path d="M 1804.933380,42.994631 A57976.419191,57976.419191 0.000000 0,1 1789.476609,230.956102" fill="none" stroke ="blue" stroke-width="1" />
<path d="M 1247.914416,949.722769 A51.661813,37.941468 -11.648976 1,1 1249.862539,949.562444" fill="none" stroke ="red" stroke-width="1" />
<ellipse transform="translate(564.513319 980.669404) rotate(-45.034508)" rx="55.515999" ry="42.082077" stroke="red" fill="none" stroke-width= "1" /> 
<path d="M 617.209192,1261.896420 A53.524193,39.784419 -44.432553 0,1 692.471603,1185.946278" fill="none" stroke ="red" stroke-width="1" />
<ellipse transform="translate(2416.590344 1329.721439) rotate(32.933140)" rx="54.047655" ry="26.120949" stroke="red" fill="none" stroke-width= "1" /> 
<line x1="300.298688" y1="1959.755340" x2="339.087152" y2="1997.258401"  fill="none" stroke ="green" stroke-width="1" />
<path d="M 1688.376433,720.045131 A54.463273,37.378266 20.256190 1,1 1690.268075,720.388838" fill="none" stroke ="red" stroke-width="1" />
<ellipse transform="translate(495.538937 1338.702869) rotate(-48.521424)" rx="54.369907" ry="38.002797" stroke="red" fill="none" stroke-width= "1" /> 
<path d="M 1220.664218,234.283933 A57.945230,46.377367 0.585768 1,1 1175.953898,237.258426" fill="none" stroke ="red" stroke-width="1" />
<ellipse transform="translate(2176.317910 1052.217908) rotate(30.981513)" rx="54.328459" ry="30.322630" stroke="red" fill="none" stroke-width= "1" /> 
<path d="M 583.321364,1189.181871 A54.725880,39.621545 -46.447964 1,1 583.844573,1187.413067" fill="none" stroke ="red" stroke-width="1" />
<ellipse transform="translate(2231.205816 838.234221) rotate(35.797202)" rx="57.512151" ry="31.939323" stroke="red" fill="none" stroke-width= "1" /> 
<ellipse transform="translate(353.745024 1016.815162) rotate(-50.051666)" rx="57.482208" ry="43.819726" stroke="red" fill="none" stroke-width= "1" /> 
<ellipse transform="translate(359.623853 1351.341256) rotate(-51.763156)" rx="55.747503" ry="39.188226" stroke="red" fill="none" stroke-width= "1" /> 
<ellipse transform="translate(2420.190674 1451.537719) rotate(31.268114)" rx="52.513982" ry="25.103892" stroke="red" fill="none" stroke-width= "1" /> 
<path d="M 1552.986716,106.138778 A7.302132,7.302132 0.000000 0,1 1559.007217,117.731666" fill="none" stroke ="blue" stroke-width="1" />
<ellipse transform="translate(2096.734632 866.299266) rotate(31.785037)" rx="55.700391" ry="32.426990" stroke="red" fill="none" stroke-width= "1" /> 
<ellipse transform="translate(319.572574 1500.505230) rotate(-54.252579)" rx="55.506720" ry="37.140253" stroke="red" fill="none" stroke-width= "1" /> 
<line x1="1483.906820" y1="206.827844" x2="1482.669879" y2="251.896816"  fill="none" stroke ="green" stroke-width="1" />
<ellipse transform="translate(495.483563 445.224736) rotate(-41.010406)" rx="59.454829" ry="50.143483" stroke="red" fill="none" stroke-width= "1" /> 
<ellipse transform="translate(2287.540295 1120.785019) rotate(32.630312)" rx="54.781731" ry="28.793908" stroke="red" fill="none" stroke-width= "1" /> 
<path d="M 2018.707349,630.041491 A58.579131,35.888169 33.772354 1,1 2020.741989,630.756247" fill="none" stroke ="red" stroke-width="1" />
<path d="M 2459.091126,1207.816425 A56.996158,27.544928 36.540729 1,1 2460.672054,1208.600722" fill="none" stroke ="red" stroke-width="1" />
<line x1="1723.485518" y1="48.944344" x2="1745.801802" y2="5.079015"  fill="none" stroke ="green" stroke-width="1" />
<path d="M 1688.809173,24.731380 A23.746393,11.493122 -38.027328 1,1 1690.647698,47.613789" fill="none" stroke ="red" stroke-width="1" />
<line x1="1500.888250" y1="258.066653" x2="1502.484061" y2="196.890888"  fill="none" stroke ="green" stroke-width="1" />
<ellipse transform="translate(2096.473514 501.454371) rotate(38.332351)" rx="60.368337" ry="35.928903" stroke="red" fill="none" stroke-width= "1" /> 
<ellipse transform="translate(405.471466 813.265245) rotate(-46.675173)" rx="58.098486" ry="45.966735" stroke="red" fill="none" stroke-width= "1" /> 
<line x1="1826.364614" y1="1393.403162" x2="1841.637060" y2="1410.996448"  fill="none" stroke ="green" stroke-width="1" />
<ellipse transform="translate(294.846000 635.863700) rotate(-48.658438)" rx="60.173968" ry="49.375987" stroke="red" fill="none" stroke-width= "1" /> 
<path d="M 1886.155176,355.940507 A59.621707,38.570248 32.099025 1,1 1830.185874,333.952151" fill="none" stroke ="red" stroke-width="1" />
<path d="M 782.953087,1635.936264 A46.857507,29.457761 -40.149603 0,1 862.417385,1593.231947" fill="none" stroke ="red" stroke-width="1" />
<path d="M 1699.792917,23.604113 A11.901373,6.305584 -41.382972 1,1 1697.096084,37.562951" fill="none" stroke ="red" stroke-width="1" />
<ellipse transform="translate(2085.928327 709.053340) rotate(34.286235)" rx="57.667884" ry="34.083936" stroke="red" fill="none" stroke-width= "1" /> 
<ellipse transform="translate(2232.140352 939.102984) rotate(33.903943)" rx="56.243839" ry="30.961848" stroke="red" fill="none" stroke-width= "1" /> 
<ellipse transform="translate(417.200697 1131.088442) rotate(-49.669077)" rx="56.539504" ry="41.384794" stroke="red" fill="none" stroke-width= "1" /> 
<path d="M 242.473841,1218.712043 A57.298422,41.644813 -52.154477 1,1 241.974065,1220.509585" fill="none" stroke ="red" stroke-width="1" />
<ellipse transform="translate(2148.240360 633.461623) rotate(37.299425)" rx="59.467705" ry="34.464004" stroke="red" fill="none" stroke-width= "1" /> 
<ellipse transform="translate(220.466238 877.791642) rotate(-52.810153)" rx="59.336484" ry="46.454280" stroke="red" fill="none" stroke-width= "1" /> 
<path d="M 413.213845,913.584911 A56.877427,43.954052 -46.602942 1,1 412.707245,915.609863" fill="none" stroke ="red" stroke-width="1" />
<path d="M 1432.920462,244.204153 A10.300736,10.300736 0.000000 0,1 1437.269155,227.758850" fill="none" stroke ="blue" stroke-width="1" />
<line x1="1522.445042" y1="120.671702" x2="1523.572362" y2="106.911651"  fill="none" stroke ="green" stroke-width="1" />
<path d="M 1544.528799,124.625276 A13.947745,13.947745 0.000000 0,1 1553.540474,109.479666" fill="none" stroke ="blue" stroke-width="1" />
<ellipse transform="translate(2337.425955 1066.485038) rotate(35.089017)" rx="55.975640" ry="29.305288" stroke="red" fill="none" stroke-width= "1" /> 
<ellipse transform="translate(2387.799105 1220.912863) rotate(34.029853)" rx="54.797375" ry="27.298101" stroke="red" fill="none" stroke-width= "1" /> 
<line x1="1030.103359" y1="264.887531" x2="1013.760820" y2="248.746862"  fill="none" stroke ="green" stroke-width="1" />
<ellipse transform="translate(135.771510 742.509084) rotate(-55.375051)" rx="60.800057" ry="48.950706" stroke="red" fill="none" stroke-width= "1" /> 
<path d="M 1434.841866,1391.871595 A57.994839,57.994839 0.000000 0,1 1520.722723,1387.272007" fill="none" stroke ="blue" stroke-width="1" />
<path d="M 1743.240312,1396.194902 A59.650502,59.650502 0.000000 0,1 1824.132203,1393.992965" fill="none" stroke ="blue" stroke-width="1" />
<line x1="1753.358778" y1="-0.498960" x2="1727.525688" y2="51.587859"  fill="none" stroke ="green" stroke-width="1" />
<path d="M 675.635781,367.550406 A49.488446,49.488446 0.000000 0,1 588.922722,330.817031" fill="none" stroke ="blue" stroke-width="1" />
<path d="M 229.465481,502.187094 A70.833955,70.833955 0.000000 0,1 221.420420,456.909587" fill="none" stroke ="blue" stroke-width="1" />
<path d="M 1926.879632,1428.482594 A29.434857,4.604282 13.719581 0,1 1927.359649,1428.601790" fill="none" stroke ="red" stroke-width="1" />
<path d="M 699.563076,302.341630 A53.908024,53.908024 0.000000 0,1 676.938402,369.893847" fill="none" stroke ="blue" stroke-width="1" />
<path d="M 316.487021,416.059505 A60.583403,49.525218 -45.799991 1,1 230.355668,499.797584" fill="none" stroke ="red" stroke-width="1" />
<path d="M 225.557645,1789.156076 A29637.094404,29637.094404 0.000000 0,1 -0.497047,1073.754397" fill="none" stroke ="blue" stroke-width="1" />
<ellipse transform="translate(220.730870 1111.147249) rotate(-52.798193)" rx="58.456477" ry="43.336390" stroke="red" fill="none" stroke-width= "1" /> 
<ellipse transform="translate(2347.749754 992.016739) rotate(36.287288)" rx="57.226292" ry="29.899485" stroke="red" fill="none" stroke-width= "1" /> 
<path d="M 1382.647833,250.567867 A69.117278,69.117278 0.000000 0,1 1284.646758,239.705433" fill="none" stroke ="blue" stroke-width="1" />
<path d="M 120.031415,497.105450 A61.925730,51.183630 -54.110263 1,1 67.518920,524.641072" fill="none" stroke ="red" stroke-width="1" />
<path d="M 1448.576945,150.075627 A4.772970,4.772970 0.000000 1,1 1443.941171,158.129001" fill="none" stroke ="blue" stroke-width="1" />
<path d="M 1112.742823,246.601405 A65.286545,65.286545 0.000000 0,1 1027.435060,260.905186" fill="none" stroke ="blue" stroke-width="1" />
<ellipse transform="translate(2286.092140 706.877902) rotate(38.358990)" rx="60.127000" ry="33.147316" stroke="red" fill="none" stroke-width= "1" /> 
<path d="M 1219.145868,1437.032783 A61.299397,61.299397 0.000000 0,1 1281.264278,1419.059615" fill="none" stroke ="blue" stroke-width="1" />
<ellipse transform="translate(2387.533554 929.358278) rotate(38.328056)" rx="58.721312" ry="30.371876" stroke="red" fill="none" stroke-width= "1" /> 
<line x1="1768.794616" y1="18.322006" x2="1764.434319" y2="33.142452"  fill="none" stroke ="green" stroke-width="1" />
<path d="M 2028.289310,420.531623 A79.795532,79.795532 0.000000 0,1 1938.078726,377.014083" fill="none" stroke ="blue" stroke-width="1" />
<ellipse transform="translate(2468.526776 1071.623301) rotate(38.386834)" rx="58.014015" ry="28.454662" stroke="red" fill="none" stroke-width= "1" /> 
<path d="M 1771.286721,322.512502 A70.190899,70.190899 0.000000 0,1 1671.546183,286.561930" fill="none" stroke ="blue" stroke-width="1" />
<ellipse transform="translate(2502.526043 1009.723364) rotate(40.616653)" rx="59.802577" ry="29.189299" stroke="red" fill="none" stroke-width= "1" /> 
<path d="M 2242.514864,-0.314474 A4357.882766,4357.882766 0.000000 0,1 2212.408971,200.071203" fill="none" stroke ="blue" stroke-width="1" />
<ellipse cx="1626.998618" cy="83.535436" rx="3.281001" ry="3.281001" stroke="blue" stroke-width="1" fill="none" /> 
<path d="M 1378.411998,245.361913 A30.810456,30.810456 0.000000 0,1 1358.212373,240.830575" fill="none" stroke ="blue" stroke-width="1" />
<line x1="1855.355325" y1="344.954698" x2="1875.071941" y2="354.126842"  fill="none" stroke ="green" stroke-width="1" />
<line x1="283.761979" y1="1971.510641" x2="300.989661" y2="1959.119989"  fill="none" stroke ="green" stroke-width="1" />
<line x1="1781.345666" y1="12.473986" x2="1772.480768" y2="15.929196"  fill="none" stroke ="green" stroke-width="1" />
<path d="M 1359.732031,242.959436 A71.889254,71.889254 0.000000 0,1 1316.852979,235.278950" fill="none" stroke ="blue" stroke-width="1" />
<ellipse transform="translate(2278.167423 567.031893) rotate(36.387314)" rx="62.301675" ry="33.183648" stroke="red" fill="none" stroke-width= "1" /> 
<line x1="1742.739959" y1="3.513585" x2="1727.342007" y2="11.641692"  fill="none" stroke ="green" stroke-width="1" />
<path d="M 510.560177,348.997372 A178.464162,178.464162 0.000000 0,1 470.668839,365.422137" fill="none" stroke ="blue" stroke-width="1" />
<line x1="1650.003730" y1="120.806460" x2="1656.404927" y2="115.640120"  fill="none" stroke ="green" stroke-width="1" />
<path d="M 1855.409803,346.256356 A31.042725,31.042725 0.000000 0,1 1827.915603,334.394946" fill="none" stroke ="blue" stroke-width="1" />
<path d="M 2463.456188,801.242735 A61.315094,32.428371 39.798251 1,1 2462.606429,800.833477" fill="none" stroke ="red" stroke-width="1" />
<path d="M 1222.901283,236.428351 A218.037640,218.037640 0.000000 0,1 1186.992360,239.605180" fill="none" stroke ="blue" stroke-width="1" />
<path d="M 1462.425553,251.169166 A1720.905356,1720.905356 0.000000 0,1 1441.533848,247.248893" fill="none" stroke ="blue" stroke-width="1" />
<path d="M 1501.646811,257.898958 A29.279452,29.279452 0.000000 0,1 1480.207169,253.153397" fill="none" stroke ="blue" stroke-width="1" />
<ellipse transform="translate(2462.758017 676.083197) rotate(40.399740)" rx="63.233746" ry="35.134463" stroke="red" fill="none" stroke-width= "1" /> 
<line x1="1085.943214" y1="249.133797" x2="1109.921620" y2="240.983091"  fill="none" stroke ="green" stroke-width="1" />
<ellipse cx="755.773052" cy="1216.854359" rx="3.325926" ry="3.325926" stroke="blue" stroke-width="1" fill="none" /> 
<line x1="1424.093111" y1="248.947355" x2="1439.488379" y2="251.041474"  fill="none" stroke ="green" stroke-width="1" />
<line x1="1739.138749" y1="314.023614" x2="1759.795624" y2="310.976118"  fill="none" stroke ="green" stroke-width="1" />
<line x1="1752.053799" y1="312.027876" x2="1757.031189" y2="311.692408"  fill="none" stroke ="green" stroke-width="1" />
<line x1="1831.953258" y1="1407.288183" x2="1749.473215" y2="1399.574778"  fill="none" stroke ="green" stroke-width="1" />
<path d="M 150.405091,1810.673501 A14.359221,14.359221 0.000000 0,1 175.212830,1805.292624" fill="none" stroke ="blue" stroke-width="1" />
<line x1="1724.899311" y1="5.700334" x2="1738.071351" y2="0.489388"  fill="none" stroke ="green" stroke-width="1" />
<path d="M 1187.899073,237.970510 A8.142271,8.142271 0.000000 0,1 1174.133361,239.148570" fill="none" stroke ="blue" stroke-width="1" />
<path d="M 377.642291,397.113308 A443.546339,443.546339 0.000000 0,1 454.377030,373.965786" fill="none" stroke ="blue" stroke-width="1" />
<path d="M 1732.856906,307.506056 A12.428424,12.428424 0.000000 0,1 1718.014633,300.555514" fill="none" stroke ="blue" stroke-width="1" />
<line x1="472.471719" y1="365.808005" x2="452.299762" y2="375.279627"  fill="none" stroke ="green" stroke-width="1" />
<line x1="1067.822738" y1="243.191701" x2="1087.269630" y2="247.655931"  fill="none" stroke ="green" stroke-width="1" />
<line x1="591.255474" y1="331.974766" x2="510.223996" y2="351.625846"  fill="none" stroke ="green" stroke-width="1" />
<path d="M 1286.231228,240.107683 A31.424636,31.424636 0.000000 0,1 1311.874722,237.381994" fill="none" stroke ="blue" stroke-width="1" />
<path d="M 677.133896,312.541702 A16.647264,16.647264 0.000000 0,1 659.081892,313.625060" fill="none" stroke ="blue" stroke-width="1" />
<line x1="1757.088162" y1="313.604049" x2="1769.450627" y2="314.907992"  fill="none" stroke ="green" stroke-width="1" />
<line x1="1876.644165" y1="346.728345" x2="1910.941928" y2="0.408799"  fill="none" stroke ="green" stroke-width="1" />
<path d="M 887.767878,264.677609 A1228.361913,1228.361913 0.000000 0,1 982.179155,251.857002" fill="none" stroke ="blue" stroke-width="1" />
<path d="M 700.510641,302.128401 A1368.348214,1368.348214 0.000000 0,1 755.042586,290.215988" fill="none" stroke ="blue" stroke-width="1" />
<line x1="1718.866589" y1="84.526231" x2="1725.366823" y2="81.518511"  fill="none" stroke ="green" stroke-width="1" />
<path d="M 982.890788,250.968254 A280.040200,280.040200 0.000000 0,1 1013.005885,249.413181" fill="none" stroke ="blue" stroke-width="1" />
<line x1="2422.623262" y1="682.236732" x2="2417.889458" y2="677.091717"  fill="none" stroke ="green" stroke-width="1" />
<path d="M 1516.040968,1388.537622 A360.313593,360.313593 0.000000 0,1 1456.807547,1388.168255" fill="none" stroke ="blue" stroke-width="1" />
<path d="M 2013.983435,412.238621 A13.355647,5.537037 31.358913 1,1 2029.448628,418.161184" fill="none" stroke ="red" stroke-width="1" />
<path d="M 1546.567848,127.818977 A133.886211,133.886211 0.000000 0,1 1563.423136,117.872782" fill="none" stroke ="blue" stroke-width="1" />
<path d="M 1.624987,555.378894 A63.346380,63.346380 0.000000 0,1 30.893344,541.432837" fill="none" stroke ="blue" stroke-width="1" />
<path d="M 606.719798,1737.566881 A2141.942714,2141.942714 0.000000 0,1 779.921543,1636.685456" fill="none" stroke ="blue" stroke-width="1" />
<path d="M 1065.854737,237.655240 A24136.404439,24136.404439 0.000000 0,1 1540.975194,-1.096633" fill="none" stroke ="blue" stroke-width="1" />
<path d="M 128.218450,493.564675 A16379.181485,16379.181485 0.000000 0,1 206.566022,463.485699" fill="none" stroke ="blue" stroke-width="1" />
<path d="M 1216.913635,1444.681684 A122.045134,122.045134 0.000000 0,1 1292.996099,1422.091649" fill="none" stroke ="blue" stroke-width="1" />
<line x1="379.794763" y1="394.174936" x2="346.172224" y2="407.617173"  fill="none" stroke ="green" stroke-width="1" />
<line x1="1387.163352" y1="241.897229" x2="1386.205430" y2="254.323383"  fill="none" stroke ="green" stroke-width="1" />
<line x1="814.393083" y1="279.788803" x2="825.621641" y2="279.298126"  fill="none" stroke ="green" stroke-width="1" />
<line x1="1696.719062" y1="297.169059" x2="1710.555344" y2="304.506354"  fill="none" stroke ="green" stroke-width="1" />
<line x1="1451.044192" y1="1391.956768" x2="1443.131899" y2="1390.585198"  fill="none" stroke ="green" stroke-width="1" />
<path d="M 861.135991,1594.578250 A1211.222883,1211.222883 0.000000 0,1 786.267155,1636.519224" fill="none" stroke ="blue" stroke-width="1" />
<line x1="346.550686" y1="409.014584" x2="319.880588" y2="414.385551"  fill="none" stroke ="green" stroke-width="1" />
<line x1="1456.917326" y1="1393.041168" x2="1448.314763" y2="1393.353395"  fill="none" stroke ="green" stroke-width="1" />
<path d="M 1747.339470,71.339337 A17.509790,17.509790 0.000000 0,1 1755.439322,66.741888" fill="none" stroke ="blue" stroke-width="1" />
<path d="M 1101.587268,1485.376874 A77.150877,77.150877 0.000000 0,1 1142.361790,1467.055935" fill="none" stroke ="blue" stroke-width="1" />
<path d="M 2048.185082,417.319116 A294.961053,294.961053 0.000000 0,1 2141.646652,461.497354" fill="none" stroke ="blue" stroke-width="1" />
<path d="M 696.752064,305.608212 A14.538210,14.538210 0.000000 0,1 680.216850,310.030772" fill="none" stroke ="blue" stroke-width="1" />
<line x1="1879.357266" y1="357.235224" x2="1886.961910" y2="357.609600"  fill="none" stroke ="green" stroke-width="1" />
<path d="M 555.581312,1775.536936 A137.783068,137.783068 0.000000 0,1 601.855842,1742.668450" fill="none" stroke ="blue" stroke-width="1" />
<line x1="2162.041866" y1="409.151220" x2="2159.360347" y2="422.130228"  fill="none" stroke ="green" stroke-width="1" />
<line x1="60.399356" y1="522.797745" x2="30.982618" y2="543.080766"  fill="none" stroke ="green" stroke-width="1" />
<path d="M 1160.662593,1456.749266 A35.707694,35.707694 0.000000 0,1 1182.871097,1447.819685" fill="none" stroke ="blue" stroke-width="1" />
<line x1="1572.857693" y1="266.976203" x2="1566.190385" y2="264.244869"  fill="none" stroke ="green" stroke-width="1" />
<path d="M 866.023074,1592.042940 A3065.674530,3065.674530 0.000000 0,1 1097.774925,1479.787539" fill="none" stroke ="blue" stroke-width="1" />
<path d="M 536.661808,1783.629760 A46.976161,46.976161 0.000000 0,1 553.508077,1772.292617" fill="none" stroke ="blue" stroke-width="1" />
<line x1="2202.900205" y1="52.046039" x2="2210.847147" y2="4.412062"  fill="none" stroke ="green" stroke-width="1" />
<line x1="217.418693" y1="461.829215" x2="208.844644" y2="465.700325"  fill="none" stroke ="green" stroke-width="1" />
<line x1="1163.252896" y1="1457.572388" x2="1143.476201" y2="1466.021094"  fill="none" stroke ="green" stroke-width="1" />
<line x1="2204.196625" y1="45.766114" x2="2205.231326" y2="37.908557"  fill="none" stroke ="green" stroke-width="1" />
<path d="M 1022.768437,250.663715 A31.868973,31.868973 0.000000 0,1 1050.791223,246.635365" fill="none" stroke ="blue" stroke-width="1" />
<path d="M 1963.121396,388.548758 A107.677744,107.677744 0.000000 0,1 2008.483572,401.093680" fill="none" stroke ="blue" stroke-width="1" />
<path d="M 172.729692,1806.295039 A2268.586448,2268.586448 0.000000 0,1 245.749970,1876.251323" fill="none" stroke ="blue" stroke-width="1" />
<line x1="2135.598426" y1="450.620813" x2="2143.496635" y2="400.486621"  fill="none" stroke ="green" stroke-width="1" />
<line x1="1188.820769" y1="1446.464223" x2="1218.817305" y2="1436.453843"  fill="none" stroke ="green" stroke-width="1" />
<path d="M 2141.188581,461.245769 A52.255321,52.255321 0.000000 0,1 2168.782344,472.831345" fill="none" stroke ="blue" stroke-width="1" />
<path d="M 111.265538,503.154796 A28.266982,28.266982 0.000000 0,1 87.966781,517.163569" fill="none" stroke ="blue" stroke-width="1" />
<path d="M 2195.234039,86.003756 A81.007048,81.007048 0.000000 0,1 2192.367540,106.100655" fill="none" stroke ="blue" stroke-width="1" />
<path d="M 2192.671490,106.264142 A5130.769369,5130.769369 0.000000 0,1 2174.041637,216.368346" fill="none" stroke ="blue" stroke-width="1" />
<line x1="1952.879915" y1="382.201476" x2="1958.909923" y2="385.391094"  fill="none" stroke ="green" stroke-width="1" />
<path d="M 1898.314430,845.215112 A4.428148,4.428148 0.000000 1,1 1903.295136,851.940380" fill="none" stroke ="blue" stroke-width="1" />
<path d="M 366.953158,1993.222721 A1194.053416,1194.053416 0.000000 0,1 320.590636,1951.379030" fill="none" stroke ="blue" stroke-width="1" />
<line x1="887.170454" y1="264.871817" x2="870.961316" y2="267.613405"  fill="none" stroke ="green" stroke-width="1" />
<line x1="2164.899226" y1="278.206028" x2="2174.219399" y2="217.907739"  fill="none" stroke ="green" stroke-width="1" />
<path d="M 762.360734,292.516885 A25.869176,25.869176 0.000000 0,1 785.595111,289.273301" fill="none" stroke ="blue" stroke-width="1" />
<path d="M 530.792553,1786.708060 A1808.942854,1808.942854 0.000000 0,1 470.490687,1827.753108" fill="none" stroke ="blue" stroke-width="1" />
<path d="M 235.862590,1852.958324 A19.534661,19.534661 0.000000 0,1 247.679185,1873.074193" fill="none" stroke ="blue" stroke-width="1" />
<line x1="2195.851814" y1="176.907179" x2="2191.059406" y2="210.686631"  fill="none" stroke ="green" stroke-width="1" />
<line x1="1917.714668" y1="366.302946" x2="1892.423258" y2="354.647758"  fill="none" stroke ="green" stroke-width="1" />
<path d="M 1279.968010,1417.880585 A885.512491,885.512491 0.000000 0,1 1432.828122,1391.012087" fill="none" stroke ="blue" stroke-width="1" />
<line x1="1873.603206" y1="349.665587" x2="1879.342361" y2="357.197383"  fill="none" stroke ="green" stroke-width="1" />
<line x1="517.996929" y1="1797.973400" x2="526.070770" y2="1791.152667"  fill="none" stroke ="green" stroke-width="1" />
<line x1="2152.337936" y1="350.704757" x2="2156.174684" y2="328.435060"  fill="none" stroke ="green" stroke-width="1" />
<line x1="2207.215480" y1="94.421816" x2="2202.422737" y2="129.278440"  fill="none" stroke ="green" stroke-width="1" />
<line x1="2184.210730" y1="483.394483" x2="2169.029843" y2="474.140614"  fill="none" stroke ="green" stroke-width="1" />
<line x1="2219.542741" y1="12.944903" x2="2214.078093" y2="45.783603"  fill="none" stroke ="green" stroke-width="1" />
<path d="M 2156.352339,325.041407 A693.437526,693.437526 0.000000 0,1 2163.506690,278.095073" fill="none" stroke ="blue" stroke-width="1" />
<line x1="2211.734415" y1="224.347628" x2="2205.878534" y2="254.424363"  fill="none" stroke ="green" stroke-width="1" />
<path d="M 1856.810986,1412.269303 A142.661465,142.661465 0.000000 0,1 1888.134172,1420.659760" fill="none" stroke ="blue" stroke-width="1" />
<path d="M 787.005824,286.009768 A15.963714,15.963714 0.000000 0,1 802.285357,285.425811" fill="none" stroke ="blue" stroke-width="1" />
<path d="M 2170.171007,327.966057 A56.876310,56.876310 0.000000 0,1 2166.145146,362.610720" fill="none" stroke ="blue" stroke-width="1" />
<line x1="1329.368417" y1="1415.587216" x2="1311.749881" y2="1418.656872"  fill="none" stroke ="green" stroke-width="1" />
<path d="M 2144.818082,390.811768 A12146.705140,12146.705140 0.000000 0,1 2151.220445,351.035858" fill="none" stroke ="blue" stroke-width="1" />
<path d="M 1520.363676,1389.807610 A1020.432641,1020.432641 0.000000 0,1 1734.969377,1396.224968" fill="none" stroke ="blue" stroke-width="1" />
<line x1="1950.211007" y1="1428.891961" x2="1965.314356" y2="1436.177719"  fill="none" stroke ="green" stroke-width="1" />
<path d="M 865.904347,268.179144 A10.520056,10.520056 0.000000 0,1 851.870087,267.071937" fill="none" stroke ="blue" stroke-width="1" />
<line x1="1070.248465" y1="1499.919196" x2="1055.976157" y2="1507.533235"  fill="none" stroke ="green" stroke-width="1" />
<line x1="516.608634" y1="1799.047314" x2="526.912731" y2="1790.671417"  fill="none" stroke ="green" stroke-width="1" />
<line x1="351.118622" y1="1919.615729" x2="377.925080" y2="1899.526172"  fill="none" stroke ="green" stroke-width="1" />
<line x1="1939.070203" y1="372.779600" x2="1922.585785" y2="367.225326"  fill="none" stroke ="green" stroke-width="1" />
<line x1="726.819348" y1="1676.620492" x2="704.039912" y2="1687.418072"  fill="none" stroke ="green" stroke-width="1" />
<line x1="210.536632" y1="1784.155856" x2="193.749999" y2="1790.924934"  fill="none" stroke ="green" stroke-width="1" />
<line x1="516.608634" y1="1799.047314" x2="526.912731" y2="1790.671417"  fill="none" stroke ="green" stroke-width="1" />
<line x1="339.180884" y1="1949.765799" x2="346.950292" y2="1959.313733"  fill="none" stroke ="green" stroke-width="1" />
<path d="M 2213.638774,200.858100 A92.088427,92.088427 0.000000 0,1 2213.030791,222.004460" fill="none" stroke ="blue" stroke-width="1" />
<line x1="1026.673822" y1="1521.382094" x2="1010.557607" y2="1527.959881"  fill="none" stroke ="green" stroke-width="1" />
<path d="M 71.174992,525.149651 A14.849942,14.849942 0.000000 0,1 86.417991,520.488136" fill="none" stroke ="blue" stroke-width="1" />
<line x1="1975.168722" y1="1439.692573" x2="1993.649827" y2="1445.071923"  fill="none" stroke ="green" stroke-width="1" />
<line x1="2001.795233" y1="1448.622549" x2="2025.536232" y2="1452.428695"  fill="none" stroke ="green" stroke-width="1" />
<line x1="788.565263" y1="1641.498422" x2="778.079181" y2="1646.784102"  fill="none" stroke ="green" stroke-width="1" />
<line x1="2193.288235" y1="134.397503" x2="2190.874071" y2="151.909337"  fill="none" stroke ="green" stroke-width="1" />
<path d="M 2202.426138,256.103042 A569.834496,569.834496 0.000000 0,1 2196.917309,314.548240" fill="none" stroke ="blue" stroke-width="1" />
<path d="M 1190.564310,1454.196785 A138.891337,138.891337 0.000000 0,1 1216.220868,1443.448790" fill="none" stroke ="blue" stroke-width="1" />
<line x1="217.995445" y1="1777.881708" x2="209.987090" y2="1781.857820"  fill="none" stroke ="green" stroke-width="1" />
<line x1="517.968275" y1="1797.931345" x2="526.922982" y2="1790.684288"  fill="none" stroke ="green" stroke-width="1" />
<path d="M 195.454552,1795.278612 A9.307933,9.307933 0.000000 0,1 196.326710,1810.406133" fill="none" stroke ="blue" stroke-width="1" />
<line x1="289.362558" y1="425.219941" x2="296.893847" y2="424.988615"  fill="none" stroke ="green" stroke-width="1" />
<path d="M 2178.425771,431.047252 A161.423137,161.423137 0.000000 0,1 2172.292835,470.083743" fill="none" stroke ="blue" stroke-width="1" />
<line x1="913.015823" y1="1578.773703" x2="901.685434" y2="1580.830956"  fill="none" stroke ="green" stroke-width="1" />
<line x1="2029.269873" y1="1456.319196" x2="2040.637764" y2="1458.040713"  fill="none" stroke ="green" stroke-width="1" />
<line x1="1143.136453" y1="242.035049" x2="1121.862533" y2="241.811515"  fill="none" stroke ="green" stroke-width="1" />
<line x1="2191.616305" y1="342.972325" x2="2188.310076" y2="375.643729"  fill="none" stroke ="green" stroke-width="1" />
<path d="M 1083.784090,1496.674968 A23.791013,23.791013 0.000000 0,1 1102.013308,1488.406054" fill="none" stroke ="blue" stroke-width="1" />
<line x1="386.613007" y1="1892.773244" x2="399.238294" y2="1883.369722"  fill="none" stroke ="green" stroke-width="1" />
<line x1="218.924310" y1="1834.889453" x2="230.953086" y2="1845.427345"  fill="none" stroke ="green" stroke-width="1" />
<path d="M 2166.175664,294.977759 A37.345650,37.345650 0.000000 0,1 2164.542471,311.515972" fill="none" stroke ="blue" stroke-width="1" />
</svg>
