<?xml version="1.0" standalone="no"?>
<!DOCTYPE svg PUBLIC "-//W3C//DTD SVG 1.1//EN"
 "http://www.w3.org/Graphics/SVG/1.1/DTD/svg11.dtd">
<svg width="2000px" height="2000px" version="1.1"
 xmlns="http://www.w3.org/2000/svg" xmlns:xlink="http://www.w3.org/1999/xlink">
<path d="M 96.968332,108.143419 A41.895728,8.859961 12.611826 1,1 98.331664,108.439390" fill="none" stroke ="red" stroke-width="1" />
<path d="M 196.968332,108.143419 A41.895728,8.859961 12.611826 1,1 198.331664,108.439390" fill="none" stroke ="red" stroke-width="1" />
<path d="M 296.968332,108.143419 A41.895728,8.859961 12.611826 1,1 298.331664,108.439390" fill="none" stroke ="red" stroke-width="1" />
<path d="M 396.968332,108.143419 A41.895728,8.859961 12.611826 1,1 398.331664,108.439390" fill="none" stroke ="red" stroke-width="1" />
<path d="M 496.968332,108.143419 A41.895728,8.859961 12.611826 1,1 498.331664,108.439390" fill="none" stroke ="red" stroke-width="1" />
<path d="M 596.968332,108.143419 A41.895728,8.859961 12.611826 1,1 598.331664,108.439390" fill="none" stroke ="red" stroke-width="1" />
<path d="M 696.968332,108.143419 A41.895728,8.859961 12.611826 1,1 698.331664,108.439390" fill="none" stroke ="red" stroke-width="1" />
<path d="M 796.968332,108.143419 A41.895728,8.859961 12.611826 1,1 798.331664,108.439390" fill="none" stroke ="red" stroke-width="1" />
<path d="M 896.968332,108.143419 A41.895728,8.859961 12.611826 1,1 898.331664,108.439390" fill="none" stroke ="red" stroke-width="1" />
<path d="M 996.968332,108.143419 A41.895728,8.859961 12.611826 1,1 998.331664,108.439390" fill="none" stroke ="red" stroke-width="1" />
<path d="M 1096.968332,108.143419 A41.895728,8.859961 12.611826 1,1 1098.331664,108.439390" fill="none" stroke ="red" stroke-width="1" />
<path d="M 1196.968332,108.143419 A41.895728,8.859961 12.611826 1,1 1198.331664,108.439390" fill="none" stroke ="red" stroke-width="1" />
<path d="M 1296.968332,108.143419 A41.895728,8.859961 12.611826 1,1 1298.331664,108.439390" fill="none" stroke ="red" stroke-width="1" />
<path d="M 1396.968332,108.143419 A41.895728,8.859961 12.611826 1,1 1398.331664,108.439390" fill="none" stroke ="red" stroke-width="1" />
<path d="M 1496.968332,108.143419 A41.895728,8.859961 12.611826 1,1 1498.331664,108.439390" fill="none" stroke ="red" stroke-width="1" />
<path d="M 1596.968332,108.143419 A41.895728,8.859961 12.611826 1,1 1598.331664,108.439390" fill="none" stroke ="red" stroke-width="1" />
<path d="M 1696.968332,108.143419 A41.895728,8.859961 12.611826 1,1 1698.331664,108.439390" fill="none" stroke ="red" stroke-width="1" />
<path d="M 1796.968332,108.143419 A41.895728,8.859961 12.611826 1,1 1798.331664,108.439390" fill="none" stroke ="red" stroke-width="1" />
<path d="M 1896.968332,108.143419 A41.895728,8.859961 12.611826 1,1 1898.331664,108.439390" fill="none" stroke ="red" stroke-width="1" />
<path d="M 97.556846,287.714021 A42.025788,11.034482 16.038714 1,1 96.628380,287.475140" fill="none" stroke ="red" stroke-width="1" />
<path d="M 197.556846,287.714021 A42.025788,11.034482 16.038714 1,1 196.628380,287.475140" fill="none" stroke ="red" stroke-width="1" />
<path d="M 297.556846,287.714021 A42.025788,11.034482 16.038714 1,1 296.628380,287.475140" fill="none" stroke ="red" stroke-width="1" />
<path d="M 397.556846,287.714021 A42.025788,11.034482 16.038714 1,1 396.628380,287.475140" fill="none" stroke ="red" stroke-width="1" />
<path d="M 497.556846,287.714021 A42.025788,11.034482 16.038714 1,1 496.628380,287.475140" fill="none" stroke ="red" stroke-width="1" />
<path d="M 597.556846,287.714021 A42.025788,11.034482 16.038714 1,1 596.628380,287.475140" fill="none" stroke ="red" stroke-width="1" />
<path d="M 697.556846,287.714021 A42.025788,11.034482 16.038714 1,1 696.628380,287.475140" fill="none" stroke ="red" stroke-width="1" />
<path d="M 797.556846,287.714021 A42.025788,11.034482 16.038714 1,1 796.628380,287.475140" fill="none" stroke ="red" stroke-width="1" />
<path d="M 897.556846,287.714021 A42.025788,11.034482 16.038714 1,1 896.628380,287.475140" fill="none" stroke ="red" stroke-width="1" />
<path d="M 997.556846,287.714021 A42.025788,11.034482 16.038714 1,1 996.628380,287.475140" fill="none" stroke ="red" stroke-width="1" />
<path d="M 1097.556846,287.714021 A42.025788,11.034482 16.038714 1,1 1096.628380,287.475140" fill="none" stroke ="red" stroke-width="1" />
<path d="M 1197.556846,287.714021 A42.025788,11.034482 16.038714 1,1 1196.628380,287.475140" fill="none" stroke ="red" stroke-width="1" />
<path d="M 1297.556846,287.714021 A42.025788,11.034482 16.038714 1,1 1296.628380,287.475140" fill="none" stroke ="red" stroke-width="1" />
<path d="M 1397.556846,287.714021 A42.025788,11.034482 16.038714 1,1 1396.628380,287.475140" fill="none" stroke ="red" stroke-width="1" />
<path d="M 1497.556846,287.714021 A42.025788,11.034482 16.038714 1,1 1496.628380,287.475140" fill="none" stroke ="red" stroke-width="1" />
<path d="M 1597.556846,287.714021 A42.025788,11.034482 16.038714 1,1 1596.628380,287.475140" fill="none" stroke ="red" stroke-width="1" />
<path d="M 1697.556846,287.714021 A42.025788,11.034482 16.038714 1,1 1696.628380,287.475140" fill="none" stroke ="red" stroke-width="1" />
<path d="M 1797.556846,287.714021 A42.025788,11.034482 16.038714 1,1 1796.628380,287.475140" fill="none" stroke ="red" stroke-width="1" />
<path d="M 1897.556846,287.714021 A42.025788,11.034482 16.038714 1,1 1896.628380,287.475140" fill="none" stroke ="red" stroke-width="1" />
<path d="M 97.459138,514.681438 A41.903347,14.666183 21.600781 1,1 98.343779,514.987182" fill="none" stroke ="red" stroke-width="1" />
<path d="M 197.459138,514.681438 A41.903347,14.666183 21.600781 1,1 198.343779,514.987182" fill="none" stroke ="red" stroke-width="1" />
<path d="M 297.459138,514.681438 A41.903347,14.666183 21.600781 1,1 298.343779,514.987182" fill="none" stroke ="red" stroke-width="1" />
<path d="M 397.459138,514.681438 A41.903347,14.666183 21.600781 1,1 398.343779,514.987182" fill="none" stroke ="red" stroke-width="1" />
<path d="M 497.459138,514.681438 A41.903347,14.666183 21.600781 1,1 498.343779,514.987182" fill="none" stroke ="red" stroke-width="1" />
<path d="M 597.459138,514.681438 A41.903347,14.666183 21.600781 1,1 598.343779,514.987182" fill="none" stroke ="red" stroke-width="1" />
<path d="M 697.459138,514.681438 A41.903347,14.666183 21.600781 1,1 698.343779,514.987182" fill="none" stroke ="red" stroke-width="1" />
<path d="M 797.459138,514.681438 A41.903347,14.666183 21.600781 1,1 798.343779,514.987182" fill="none" stroke ="red" stroke-width="1" />
<path d="M 897.459138,514.681438 A41.903347,14.666183 21.600781 1,1 898.343779,514.987182" fill="none" stroke ="red" stroke-width="1" />
<path d="M 997.459138,514.681438 A41.903347,14.666183 21.600781 1,1 998.343779,514.987182" fill="none" stroke ="red" stroke-width="1" />
<path d="M 1097.459138,514.681438 A41.903347,14.666183 21.600781 1,1 1098.343779,514.987182" fill="none" stroke ="red" stroke-width="1" />
<path d="M 1197.459138,514.681438 A41.903347,14.666183 21.600781 1,1 1198.343779,514.987182" fill="none" stroke ="red" stroke-width="1" />
<path d="M 1297.459138,514.681438 A41.903347,14.666183 21.600781 1,1 1298.343779,514.987182" fill="none" stroke ="red" stroke-width="1" />
<path d="M 1397.459138,514.681438 A41.903347,14.666183 21.600781 1,1 1398.343779,514.987182" fill="none" stroke ="red" stroke-width="1" />
<path d="M 1497.459138,514.681438 A41.903347,14.666183 21.600781 1,1 1498.343779,514.987182" fill="none" stroke ="red" stroke-width="1" />
<path d="M 1597.459138,514.681438 A41.903347,14.666183 21.600781 1,1 1598.343779,514.987182" fill="none" stroke ="red" stroke-width="1" />
<path d="M 1697.459138,514.681438 A41.903347,14.666183 21.600781 1,1 1698.343779,514.987182" fill="none" stroke ="red" stroke-width="1" />
<path d="M 1797.459138,514.681438 A41.903347,14.666183 21.600781 1,1 1798.343779,514.987182" fill="none" stroke ="red" stroke-width="1" />
<path d="M 1897.459138,514.681438 A41.903347,14.666183 21.600781 1,1 1898.343779,514.987182" fill="none" stroke ="red" stroke-width="1" />
<path d="M 99.602003,580.974494 A41.789980,17.273643 26.394450 1,1 98.577078,580.560554" fill="none" stroke ="red" stroke-width="1" />
<path d="M 199.602003,580.974494 A41.789980,17.273643 26.394450 1,1 198.577078,580.560554" fill="none" stroke ="red" stroke-width="1" />
<path d="M 299.602003,580.974494 A41.789980,17.273643 26.394450 1,1 298.577078,580.560554" fill="none" stroke ="red" stroke-width="1" />
<path d="M 399.602003,580.974494 A41.789980,17.273643 26.394450 1,1 398.577078,580.560554" fill="none" stroke ="red" stroke-width="1" />
<path d="M 499.602003,580.974494 A41.789980,17.273643 26.394450 1,1 498.577078,580.560554" fill="none" stroke ="red" stroke-width="1" />
<path d="M 599.602003,580.974494 A41.789980,17.273643 26.394450 1,1 598.577078,580.560554" fill="none" stroke ="red" stroke-width="1" />
<path d="M 699.602003,580.974494 A41.789980,17.273643 26.394450 1,1 698.577078,580.560554" fill="none" stroke ="red" stroke-width="1" />
<path d="M 799.602003,580.974494 A41.789980,17.273643 26.394450 1,1 798.577078,580.560554" fill="none" stroke ="red" stroke-width="1" />
<path d="M 899.602003,580.974494 A41.789980,17.273643 26.394450 1,1 898.577078,580.560554" fill="none" stroke ="red" stroke-width="1" />
<path d="M 999.602003,580.974494 A41.789980,17.273643 26.394450 1,1 998.577078,580.560554" fill="none" stroke ="red" stroke-width="1" />
<path d="M 1099.602003,580.974494 A41.789980,17.273643 26.394450 1,1 1098.577078,580.560554" fill="none" stroke ="red" stroke-width="1" />
<path d="M 1199.602003,580.974494 A41.789980,17.273643 26.394450 1,1 1198.577078,580.560554" fill="none" stroke ="red" stroke-width="1" />
<path d="M 1299.602003,580.974494 A41.789980,17.273643 26.394450 1,1 1298.577078,580.560554" fill="none" stroke ="red" stroke-width="1" />
<path d="M 1399.602003,580.974494 A41.789980,17.273643 26.394450 1,1 1398.577078,580.560554" fill="none" stroke ="red" stroke-width="1" />
<path d="M 1499.602003,580.974494 A41.789980,17.273643 26.394450 1,1 1498.577078,580.560554" fill="none" stroke ="red" stroke-width="1" />
<path d="M 1599.602003,580.974494 A41.789980,17.273643 26.394450 1,1 1598.577078,580.560554" fill="none" stroke ="red" stroke-width="1" />
<path d="M 1699.602003,580.974494 A41.789980,17.273643 26.394450 1,1 1698.577078,580.560554" fill="none" stroke ="red" stroke-width="1" />
<path d="M 1799.602003,580.974494 A41.789980,17.273643 26.394450 1,1 1798.577078,580.560554" fill="none" stroke ="red" stroke-width="1" />
<path d="M 1899.602003,580.974494 A41.789980,17.273643 26.394450 1,1 1898.577078,580.560554" fill="none" stroke ="red" stroke-width="1" />
<ellipse transform="translate(98.357993 699.381658) rotate(33.474046)" rx="41.715354" ry="20.530581" stroke="red" fill="none" stroke-width= "1" /> 
<ellipse transform="translate(198.357993 699.381658) rotate(33.474046)" rx="41.715354" ry="20.530581" stroke="red" fill="none" stroke-width= "1" /> 
<ellipse transform="translate(298.357993 699.381658) rotate(33.474046)" rx="41.715354" ry="20.530581" stroke="red" fill="none" stroke-width= "1" /> 
<ellipse transform="translate(398.357993 699.381658) rotate(33.474046)" rx="41.715354" ry="20.530581" stroke="red" fill="none" stroke-width= "1" /> 
<ellipse transform="translate(498.357993 699.381658) rotate(33.474046)" rx="41.715354" ry="20.530581" stroke="red" fill="none" stroke-width= "1" /> 
<ellipse transform="translate(598.357993 699.381658) rotate(33.474046)" rx="41.715354" ry="20.530581" stroke="red" fill="none" stroke-width= "1" /> 
<ellipse transform="translate(698.357993 699.381658) rotate(33.474046)" rx="41.715354" ry="20.530581" stroke="red" fill="none" stroke-width= "1" /> 
<ellipse transform="translate(798.357993 699.381658) rotate(33.474046)" rx="41.715354" ry="20.530581" stroke="red" fill="none" stroke-width= "1" /> 
<ellipse transform="translate(898.357993 699.381658) rotate(33.474046)" rx="41.715354" ry="20.530581" stroke="red" fill="none" stroke-width= "1" /> 
<ellipse transform="translate(998.357993 699.381658) rotate(33.474046)" rx="41.715354" ry="20.530581" stroke="red" fill="none" stroke-width= "1" /> 
<ellipse transform="translate(1098.357993 699.381658) rotate(33.474046)" rx="41.715354" ry="20.530581" stroke="red" fill="none" stroke-width= "1" /> 
<ellipse transform="translate(1198.357993 699.381658) rotate(33.474046)" rx="41.715354" ry="20.530581" stroke="red" fill="none" stroke-width= "1" /> 
<ellipse transform="translate(1298.357993 699.381658) rotate(33.474046)" rx="41.715354" ry="20.530581" stroke="red" fill="none" stroke-width= "1" /> 
<ellipse transform="translate(1398.357993 699.381658) rotate(33.474046)" rx="41.715354" ry="20.530581" stroke="red" fill="none" stroke-width= "1" /> 
<ellipse transform="translate(1498.357993 699.381658) rotate(33.474046)" rx="41.715354" ry="20.530581" stroke="red" fill="none" stroke-width= "1" /> 
<ellipse transform="translate(1598.357993 699.381658) rotate(33.474046)" rx="41.715354" ry="20.530581" stroke="red" fill="none" stroke-width= "1" /> 
<ellipse transform="translate(1698.357993 699.381658) rotate(33.474046)" rx="41.715354" ry="20.530581" stroke="red" fill="none" stroke-width= "1" /> 
<ellipse transform="translate(1798.357993 699.381658) rotate(33.474046)" rx="41.715354" ry="20.530581" stroke="red" fill="none" stroke-width= "1" /> 
<ellipse transform="translate(1898.357993 699.381658) rotate(33.474046)" rx="41.715354" ry="20.530581" stroke="red" fill="none" stroke-width= "1" /> 
<ellipse transform="translate(98.386533 799.379983) rotate(45.051988)" rx="41.799737" ry="24.460858" stroke="red" fill="none" stroke-width= "1" /> 
<ellipse transform="translate(198.386533 799.379983) rotate(45.051988)" rx="41.799737" ry="24.460858" stroke="red" fill="none" stroke-width= "1" /> 
<ellipse transform="translate(298.386533 799.379983) rotate(45.051988)" rx="41.799737" ry="24.460858" stroke="red" fill="none" stroke-width= "1" /> 
<ellipse transform="translate(398.386533 799.379983) rotate(45.051988)" rx="41.799737" ry="24.460858" stroke="red" fill="none" stroke-width= "1" /> 
<ellipse transform="translate(498.386533 799.379983) rotate(45.051988)" rx="41.799737" ry="24.460858" stroke="red" fill="none" stroke-width= "1" /> 
<ellipse transform="translate(598.386533 799.379983) rotate(45.051988)" rx="41.799737" ry="24.460858" stroke="red" fill="none" stroke-width= "1" /> 
<ellipse transform="translate(698.386533 799.379983) rotate(45.051988)" rx="41.799737" ry="24.460858" stroke="red" fill="none" stroke-width= "1" /> 
<ellipse transform="translate(798.386533 799.379983) rotate(45.051988)" rx="41.799737" ry="24.460858" stroke="red" fill="none" stroke-width= "1" /> 
<ellipse transform="translate(898.386533 799.379983) rotate(45.051988)" rx="41.799737" ry="24.460858" stroke="red" fill="none" stroke-width= "1" /> 
<ellipse transform="translate(998.386533 799.379983) rotate(45.051988)" rx="41.799737" ry="24.460858" stroke="red" fill="none" stroke-width= "1" /> 
<ellipse transform="translate(1098.386533 799.379983) rotate(45.051988)" rx="41.799737" ry="24.460858" stroke="red" fill="none" stroke-width= "1" /> 
<ellipse transform="translate(1198.386533 799.379983) rotate(45.051988)" rx="41.799737" ry="24.460858" stroke="red" fill="none" stroke-width= "1" /> 
<ellipse transform="translate(1298.386533 799.379983) rotate(45.051988)" rx="41.799737" ry="24.460858" stroke="red" fill="none" stroke-width= "1" /> 
<ellipse transform="translate(1398.386533 799.379983) rotate(45.051988)" rx="41.799737" ry="24.460858" stroke="red" fill="none" stroke-width= "1" /> 
<ellipse transform="translate(1498.386533 799.379983) rotate(45.051988)" rx="41.799737" ry="24.460858" stroke="red" fill="none" stroke-width= "1" /> 
<ellipse transform="translate(1598.386533 799.379983) rotate(45.051988)" rx="41.799737" ry="24.460858" stroke="red" fill="none" stroke-width= "1" /> 
<ellipse transform="translate(1698.386533 799.379983) rotate(45.051988)" rx="41.799737" ry="24.460858" stroke="red" fill="none" stroke-width= "1" /> 
<ellipse transform="translate(1798.386533 799.379983) rotate(45.051988)" rx="41.799737" ry="24.460858" stroke="red" fill="none" stroke-width= "1" /> 
<ellipse transform="translate(1898.386533 799.379983) rotate(45.051988)" rx="41.799737" ry="24.460858" stroke="red" fill="none" stroke-width= "1" /> 
<path d="M 128.210980,899.951214 A41.856498,28.098514 64.020761 1,1 127.742941,898.068352" fill="none" stroke ="red" stroke-width="1" />
<path d="M 228.210980,899.951214 A41.856498,28.098514 64.020761 1,1 227.742941,898.068352" fill="none" stroke ="red" stroke-width="1" />
<path d="M 328.210980,899.951214 A41.856498,28.098514 64.020761 1,1 327.742941,898.068352" fill="none" stroke ="red" stroke-width="1" />
<path d="M 428.210980,899.951214 A41.856498,28.098514 64.020761 1,1 427.742941,898.068352" fill="none" stroke ="red" stroke-width="1" />
<path d="M 528.210980,899.951214 A41.856498,28.098514 64.020761 1,1 527.742941,898.068352" fill="none" stroke ="red" stroke-width="1" />
<path d="M 628.210980,899.951214 A41.856498,28.098514 64.020761 1,1 627.742941,898.068352" fill="none" stroke ="red" stroke-width="1" />
<path d="M 728.210980,899.951214 A41.856498,28.098514 64.020761 1,1 727.742941,898.068352" fill="none" stroke ="red" stroke-width="1" />
<path d="M 828.210980,899.951214 A41.856498,28.098514 64.020761 1,1 827.742941,898.068352" fill="none" stroke ="red" stroke-width="1" />
<path d="M 928.210980,899.951214 A41.856498,28.098514 64.020761 1,1 927.742941,898.068352" fill="none" stroke ="red" stroke-width="1" />
<path d="M 1028.210980,899.951214 A41.856498,28.098514 64.020761 1,1 1027.742941,898.068352" fill="none" stroke ="red" stroke-width="1" />
<path d="M 1128.210980,899.951214 A41.856498,28.098514 64.020761 1,1 1127.742941,898.068352" fill="none" stroke ="red" stroke-width="1" />
<path d="M 1228.210980,899.951214 A41.856498,28.098514 64.020761 1,1 1227.742941,898.068352" fill="none" stroke ="red" stroke-width="1" />
<path d="M 1328.210980,899.951214 A41.856498,28.098514 64.020761 1,1 1327.742941,898.068352" fill="none" stroke ="red" stroke-width="1" />
<path d="M 1428.210980,899.951214 A41.856498,28.098514 64.020761 1,1 1427.742941,898.068352" fill="none" stroke ="red" stroke-width="1" />
<path d="M 1528.210980,899.951214 A41.856498,28.098514 64.020761 1,1 1527.742941,898.068352" fill="none" stroke ="red" stroke-width="1" />
<path d="M 1628.210980,899.951214 A41.856498,28.098514 64.020761 1,1 1627.742941,898.068352" fill="none" stroke ="red" stroke-width="1" />
<path d="M 1728.210980,899.951214 A41.856498,28.098514 64.020761 1,1 1727.742941,898.068352" fill="none" stroke ="red" stroke-width="1" />
<path d="M 1828.210980,899.951214 A41.856498,28.098514 64.020761 1,1 1827.742941,898.068352" fill="none" stroke ="red" stroke-width="1" />
<path d="M 1928.210980,899.951214 A41.856498,28.098514 64.020761 1,1 1927.742941,898.068352" fill="none" stroke ="red" stroke-width="1" />
<path d="M 127.964885,999.999550 A42.084770,29.599953 -89.732236 1,1 127.957103,998.000884" fill="none" stroke ="red" stroke-width="1" />
<path d="M 227.964885,999.999550 A42.084770,29.599953 -89.732236 1,1 227.957103,998.000884" fill="none" stroke ="red" stroke-width="1" />
<path d="M 327.964885,999.999550 A42.084770,29.599953 -89.732236 1,1 327.957103,998.000884" fill="none" stroke ="red" stroke-width="1" />
<path d="M 427.964885,999.999550 A42.084770,29.599953 -89.732236 1,1 427.957103,998.000884" fill="none" stroke ="red" stroke-width="1" />
<path d="M 527.964885,999.999550 A42.084770,29.599953 -89.732236 1,1 527.957103,998.000884" fill="none" stroke ="red" stroke-width="1" />
<path d="M 627.964885,999.999550 A42.084770,29.599953 -89.732236 1,1 627.957103,998.000884" fill="none" stroke ="red" stroke-width="1" />
<path d="M 727.964885,999.999550 A42.084770,29.599953 -89.732236 1,1 727.957103,998.000884" fill="none" stroke ="red" stroke-width="1" />
<path d="M 827.964885,999.999550 A42.084770,29.599953 -89.732236 1,1 827.957103,998.000884" fill="none" stroke ="red" stroke-width="1" />
<path d="M 927.964885,999.999550 A42.084770,29.599953 -89.732236 1,1 927.957103,998.000884" fill="none" stroke ="red" stroke-width="1" />
<path d="M 1027.964885,999.999550 A42.084770,29.599953 -89.732236 1,1 1027.957103,998.000884" fill="none" stroke ="red" stroke-width="1" />
<path d="M 1127.964885,999.999550 A42.084770,29.599953 -89.732236 1,1 1127.957103,998.000884" fill="none" stroke ="red" stroke-width="1" />
<path d="M 1227.964885,999.999550 A42.084770,29.599953 -89.732236 1,1 1227.957103,998.000884" fill="none" stroke ="red" stroke-width="1" />
<path d="M 1327.964885,999.999550 A42.084770,29.599953 -89.732236 1,1 1327.957103,998.000884" fill="none" stroke ="red" stroke-width="1" />
<path d="M 1427.964885,999.999550 A42.084770,29.599953 -89.732236 1,1 1427.957103,998.000884" fill="none" stroke ="red" stroke-width="1" />
<path d="M 1527.964885,999.999550 A42.084770,29.599953 -89.732236 1,1 1527.957103,998.000884" fill="none" stroke ="red" stroke-width="1" />
<path d="M 1627.964885,999.999550 A42.084770,29.599953 -89.732236 1,1 1627.957103,998.000884" fill="none" stroke ="red" stroke-width="1" />
<path d="M 1727.964885,999.999550 A42.084770,29.599953 -89.732236 1,1 1727.957103,998.000884" fill="none" stroke ="red" stroke-width="1" />
<path d="M 1827.964885,999.999550 A42.084770,29.599953 -89.732236 1,1 1827.957103,998.000884" fill="none" stroke ="red" stroke-width="1" />
<path d="M 1927.964885,999.999550 A42.084770,29.599953 -89.732236 1,1 1927.957103,998.000884" fill="none" stroke ="red" stroke-width="1" />
<path d="M 68.897670,1098.492534 A41.852967,28.028182 -63.580976 1,1 68.446454,1100.325708" fill="none" stroke ="red" stroke-width="1" />
<path d="M 168.897670,1098.492534 A41.852967,28.028182 -63.580976 1,1 168.446454,1100.325708" fill="none" stroke ="red" stroke-width="1" />
<path d="M 268.897670,1098.492534 A41.852967,28.028182 -63.580976 1,1 268.446454,1100.325708" fill="none" stroke ="red" stroke-width="1" />
<path d="M 368.897670,1098.492534 A41.852967,28.028182 -63.580976 1,1 368.446454,1100.325708" fill="none" stroke ="red" stroke-width="1" />
<path d="M 468.897670,1098.492534 A41.852967,28.028182 -63.580976 1,1 468.446454,1100.325708" fill="none" stroke ="red" stroke-width="1" />
<path d="M 568.897670,1098.492534 A41.852967,28.028182 -63.580976 1,1 568.446454,1100.325708" fill="none" stroke ="red" stroke-width="1" />
<path d="M 668.897670,1098.492534 A41.852967,28.028182 -63.580976 1,1 668.446454,1100.325708" fill="none" stroke ="red" stroke-width="1" />
<path d="M 768.897670,1098.492534 A41.852967,28.028182 -63.580976 1,1 768.446454,1100.325708" fill="none" stroke ="red" stroke-width="1" />
<path d="M 868.897670,1098.492534 A41.852967,28.028182 -63.580976 1,1 868.446454,1100.325708" fill="none" stroke ="red" stroke-width="1" />
<path d="M 968.897670,1098.492534 A41.852967,28.028182 -63.580976 1,1 968.446454,1100.325708" fill="none" stroke ="red" stroke-width="1" />
<path d="M 1068.897670,1098.492534 A41.852967,28.028182 -63.580976 1,1 1068.446454,1100.325708" fill="none" stroke ="red" stroke-width="1" />
<path d="M 1168.897670,1098.492534 A41.852967,28.028182 -63.580976 1,1 1168.446454,1100.325708" fill="none" stroke ="red" stroke-width="1" />
<path d="M 1268.897670,1098.492534 A41.852967,28.028182 -63.580976 1,1 1268.446454,1100.325708" fill="none" stroke ="red" stroke-width="1" />
<path d="M 1368.897670,1098.492534 A41.852967,28.028182 -63.580976 1,1 1368.446454,1100.325708" fill="none" stroke ="red" stroke-width="1" />
<path d="M 1468.897670,1098.492534 A41.852967,28.028182 -63.580976 1,1 1468.446454,1100.325708" fill="none" stroke ="red" stroke-width="1" />
<path d="M 1568.897670,1098.492534 A41.852967,28.028182 -63.580976 1,1 1568.446454,1100.325708" fill="none" stroke ="red" stroke-width="1" />
<path d="M 1668.897670,1098.492534 A41.852967,28.028182 -63.580976 1,1 1668.446454,1100.325708" fill="none" stroke ="red" stroke-width="1" />
<path d="M 1768.897670,1098.492534 A41.852967,28.028182 -63.580976 1,1 1768.446454,1100.325708" fill="none" stroke ="red" stroke-width="1" />
<path d="M 1868.897670,1098.492534 A41.852967,28.028182 -63.580976 1,1 1868.446454,1100.325708" fill="none" stroke ="red" stroke-width="1" />
<ellipse transform="translate(98.380093 1199.371252) rotate(-44.907967)" rx="41.775327" ry="24.415473" stroke="red" fill="none" stroke-width= "1" /> 
<ellipse transform="translate(198.380093 1199.371252) rotate(-44.907967)" rx="41.775327" ry="24.415473" stroke="red" fill="none" stroke-width= "1" /> 
<ellipse transform="translate(298.380093 1199.371252) rotate(-44.907967)" rx="41.775327" ry="24.415473" stroke="red" fill="none" stroke-width= "1" /> 
<ellipse transform="translate(398.380093 1199.371252) rotate(-44.907967)" rx="41.775327" ry="24.415473" stroke="red" fill="none" stroke-width= "1" /> 
<ellipse transform="translate(498.380093 1199.371252) rotate(-44.907967)" rx="41.775327" ry="24.415473" stroke="red" fill="none" stroke-width= "1" /> 
<ellipse transform="translate(598.380093 1199.371252) rotate(-44.907967)" rx="41.775327" ry="24.415473" stroke="red" fill="none" stroke-width= "1" /> 
<ellipse transform="translate(698.380093 1199.371252) rotate(-44.907967)" rx="41.775327" ry="24.415473" stroke="red" fill="none" stroke-width= "1" /> 
<ellipse transform="translate(798.380093 1199.371252) rotate(-44.907967)" rx="41.775327" ry="24.415473" stroke="red" fill="none" stroke-width= "1" /> 
<ellipse transform="translate(898.380093 1199.371252) rotate(-44.907967)" rx="41.775327" ry="24.415473" stroke="red" fill="none" stroke-width= "1" /> 
<ellipse transform="translate(998.380093 1199.371252) rotate(-44.907967)" rx="41.775327" ry="24.415473" stroke="red" fill="none" stroke-width= "1" /> 
<ellipse transform="translate(1098.380093 1199.371252) rotate(-44.907967)" rx="41.775327" ry="24.415473" stroke="red" fill="none" stroke-width= "1" /> 
<ellipse transform="translate(1198.380093 1199.371252) rotate(-44.907967)" rx="41.775327" ry="24.415473" stroke="red" fill="none" stroke-width= "1" /> 
<ellipse transform="translate(1298.380093 1199.371252) rotate(-44.907967)" rx="41.775327" ry="24.415473" stroke="red" fill="none" stroke-width= "1" /> 
<ellipse transform="translate(1398.380093 1199.371252) rotate(-44.907967)" rx="41.775327" ry="24.415473" stroke="red" fill="none" stroke-width= "1" /> 
<ellipse transform="translate(1498.380093 1199.371252) rotate(-44.907967)" rx="41.775327" ry="24.415473" stroke="red" fill="none" stroke-width= "1" /> 
<ellipse transform="translate(1598.380093 1199.371252) rotate(-44.907967)" rx="41.775327" ry="24.415473" stroke="red" fill="none" stroke-width= "1" /> 
<ellipse transform="translate(1698.380093 1199.371252) rotate(-44.907967)" rx="41.775327" ry="24.415473" stroke="red" fill="none" stroke-width= "1" /> 
<ellipse transform="translate(1798.380093 1199.371252) rotate(-44.907967)" rx="41.775327" ry="24.415473" stroke="red" fill="none" stroke-width= "1" /> 
<ellipse transform="translate(1898.380093 1199.371252) rotate(-44.907967)" rx="41.775327" ry="24.415473" stroke="red" fill="none" stroke-width= "1" /> 
<ellipse transform="translate(98.370716 1299.373364) rotate(-33.338115)" rx="41.705569" ry="20.459785" stroke="red" fill="none" stroke-width= "1" /> 
<ellipse transform="translate(198.370716 1299.373364) rotate(-33.338115)" rx="41.705569" ry="20.459785" stroke="red" fill="none" stroke-width= "1" /> 
<ellipse transform="translate(298.370716 1299.373364) rotate(-33.338115)" rx="41.705569" ry="20.459785" stroke="red" fill="none" stroke-width= "1" /> 
<ellipse transform="translate(398.370716 1299.373364) rotate(-33.338115)" rx="41.705569" ry="20.459785" stroke="red" fill="none" stroke-width= "1" /> 
<ellipse transform="translate(498.370716 1299.373364) rotate(-33.338115)" rx="41.705569" ry="20.459785" stroke="red" fill="none" stroke-width= "1" /> 
<ellipse transform="translate(598.370716 1299.373364) rotate(-33.338115)" rx="41.705569" ry="20.459785" stroke="red" fill="none" stroke-width= "1" /> 
<ellipse transform="translate(698.370716 1299.373364) rotate(-33.338115)" rx="41.705569" ry="20.459785" stroke="red" fill="none" stroke-width= "1" /> 
<ellipse transform="translate(798.370716 1299.373364) rotate(-33.338115)" rx="41.705569" ry="20.459785" stroke="red" fill="none" stroke-width= "1" /> 
<ellipse transform="translate(898.370716 1299.373364) rotate(-33.338115)" rx="41.705569" ry="20.459785" stroke="red" fill="none" stroke-width= "1" /> 
<ellipse transform="translate(998.370716 1299.373364) rotate(-33.338115)" rx="41.705569" ry="20.459785" stroke="red" fill="none" stroke-width= "1" /> 
<ellipse transform="translate(1098.370716 1299.373364) rotate(-33.338115)" rx="41.705569" ry="20.459785" stroke="red" fill="none" stroke-width= "1" /> 
<ellipse transform="translate(1198.370716 1299.373364) rotate(-33.338115)" rx="41.705569" ry="20.459785" stroke="red" fill="none" stroke-width= "1" /> 
<ellipse transform="translate(1298.370716 1299.373364) rotate(-33.338115)" rx="41.705569" ry="20.459785" stroke="red" fill="none" stroke-width= "1" /> 
<ellipse transform="translate(1398.370716 1299.373364) rotate(-33.338115)" rx="41.705569" ry="20.459785" stroke="red" fill="none" stroke-width= "1" /> 
<ellipse transform="translate(1498.370716 1299.373364) rotate(-33.338115)" rx="41.705569" ry="20.459785" stroke="red" fill="none" stroke-width= "1" /> 
<ellipse transform="translate(1598.370716 1299.373364) rotate(-33.338115)" rx="41.705569" ry="20.459785" stroke="red" fill="none" stroke-width= "1" /> 
<ellipse transform="translate(1698.370716 1299.373364) rotate(-33.338115)" rx="41.705569" ry="20.459785" stroke="red" fill="none" stroke-width= "1" /> 
<ellipse transform="translate(1798.370716 1299.373364) rotate(-33.338115)" rx="41.705569" ry="20.459785" stroke="red" fill="none" stroke-width= "1" /> 
<ellipse transform="translate(1898.370716 1299.373364) rotate(-33.338115)" rx="41.705569" ry="20.459785" stroke="red" fill="none" stroke-width= "1" /> 
<path d="M 98.815682,1418.012409 A41.813607,17.205599 -26.330669 1,1 99.834110,1417.597987" fill="none" stroke ="red" stroke-width="1" />
<path d="M 198.815682,1418.012409 A41.813607,17.205599 -26.330669 1,1 199.834110,1417.597987" fill="none" stroke ="red" stroke-width="1" />
<path d="M 298.815682,1418.012409 A41.813607,17.205599 -26.330669 1,1 299.834110,1417.597987" fill="none" stroke ="red" stroke-width="1" />
<path d="M 398.815682,1418.012409 A41.813607,17.205599 -26.330669 1,1 399.834110,1417.597987" fill="none" stroke ="red" stroke-width="1" />
<path d="M 498.815682,1418.012409 A41.813607,17.205599 -26.330669 1,1 499.834110,1417.597987" fill="none" stroke ="red" stroke-width="1" />
<path d="M 598.815682,1418.012409 A41.813607,17.205599 -26.330669 1,1 599.834110,1417.597987" fill="none" stroke ="red" stroke-width="1" />
<path d="M 698.815682,1418.012409 A41.813607,17.205599 -26.330669 1,1 699.834110,1417.597987" fill="none" stroke ="red" stroke-width="1" />
<path d="M 798.815682,1418.012409 A41.813607,17.205599 -26.330669 1,1 799.834110,1417.597987" fill="none" stroke ="red" stroke-width="1" />
<path d="M 898.815682,1418.012409 A41.813607,17.205599 -26.330669 1,1 899.834110,1417.597987" fill="none" stroke ="red" stroke-width="1" />
<path d="M 998.815682,1418.012409 A41.813607,17.205599 -26.330669 1,1 999.834110,1417.597987" fill="none" stroke ="red" stroke-width="1" />
<path d="M 1098.815682,1418.012409 A41.813607,17.205599 -26.330669 1,1 1099.834110,1417.597987" fill="none" stroke ="red" stroke-width="1" />
<path d="M 1198.815682,1418.012409 A41.813607,17.205599 -26.330669 1,1 1199.834110,1417.597987" fill="none" stroke ="red" stroke-width="1" />
<path d="M 1298.815682,1418.012409 A41.813607,17.205599 -26.330669 1,1 1299.834110,1417.597987" fill="none" stroke ="red" stroke-width="1" />
<path d="M 1398.815682,1418.012409 A41.813607,17.205599 -26.330669 1,1 1399.834110,1417.597987" fill="none" stroke ="red" stroke-width="1" />
<path d="M 1498.815682,1418.012409 A41.813607,17.205599 -26.330669 1,1 1499.834110,1417.597987" fill="none" stroke ="red" stroke-width="1" />
<path d="M 1598.815682,1418.012409 A41.813607,17.205599 -26.330669 1,1 1599.834110,1417.597987" fill="none" stroke ="red" stroke-width="1" />
<path d="M 1698.815682,1418.012409 A41.813607,17.205599 -26.330669 1,1 1699.834110,1417.597987" fill="none" stroke ="red" stroke-width="1" />
<path d="M 1798.815682,1418.012409 A41.813607,17.205599 -26.330669 1,1 1799.834110,1417.597987" fill="none" stroke ="red" stroke-width="1" />
<path d="M 1898.815682,1418.012409 A41.813607,17.205599 -26.330669 1,1 1899.834110,1417.597987" fill="none" stroke ="red" stroke-width="1" />
<path d="M 98.578361,1483.724107 A41.916262,14.630591 -21.564718 1,1 97.697673,1484.026095" fill="none" stroke ="red" stroke-width="1" />
<path d="M 198.578361,1483.724107 A41.916262,14.630591 -21.564718 1,1 197.697673,1484.026095" fill="none" stroke ="red" stroke-width="1" />
<path d="M 298.578361,1483.724107 A41.916262,14.630591 -21.564718 1,1 297.697673,1484.026095" fill="none" stroke ="red" stroke-width="1" />
<path d="M 398.578361,1483.724107 A41.916262,14.630591 -21.564718 1,1 397.697673,1484.026095" fill="none" stroke ="red" stroke-width="1" />
<path d="M 498.578361,1483.724107 A41.916262,14.630591 -21.564718 1,1 497.697673,1484.026095" fill="none" stroke ="red" stroke-width="1" />
<path d="M 598.578361,1483.724107 A41.916262,14.630591 -21.564718 1,1 597.697673,1484.026095" fill="none" stroke ="red" stroke-width="1" />
<path d="M 698.578361,1483.724107 A41.916262,14.630591 -21.564718 1,1 697.697673,1484.026095" fill="none" stroke ="red" stroke-width="1" />
<path d="M 798.578361,1483.724107 A41.916262,14.630591 -21.564718 1,1 797.697673,1484.026095" fill="none" stroke ="red" stroke-width="1" />
<path d="M 898.578361,1483.724107 A41.916262,14.630591 -21.564718 1,1 897.697673,1484.026095" fill="none" stroke ="red" stroke-width="1" />
<path d="M 998.578361,1483.724107 A41.916262,14.630591 -21.564718 1,1 997.697673,1484.026095" fill="none" stroke ="red" stroke-width="1" />
<path d="M 1098.578361,1483.724107 A41.916262,14.630591 -21.564718 1,1 1097.697673,1484.026095" fill="none" stroke ="red" stroke-width="1" />
<path d="M 1198.578361,1483.724107 A41.916262,14.630591 -21.564718 1,1 1197.697673,1484.026095" fill="none" stroke ="red" stroke-width="1" />
<path d="M 1298.578361,1483.724107 A41.916262,14.630591 -21.564718 1,1 1297.697673,1484.026095" fill="none" stroke ="red" stroke-width="1" />
<path d="M 1398.578361,1483.724107 A41.916262,14.630591 -21.564718 1,1 1397.697673,1484.026095" fill="none" stroke ="red" stroke-width="1" />
<path d="M 1498.578361,1483.724107 A41.916262,14.630591 -21.564718 1,1 1497.697673,1484.026095" fill="none" stroke ="red" stroke-width="1" />
<path d="M 1598.578361,1483.724107 A41.916262,14.630591 -21.564718 1,1 1597.697673,1484.026095" fill="none" stroke ="red" stroke-width="1" />
<path d="M 1698.578361,1483.724107 A41.916262,14.630591 -21.564718 1,1 1697.697673,1484.026095" fill="none" stroke ="red" stroke-width="1" />
<path d="M 1798.578361,1483.724107 A41.916262,14.630591 -21.564718 1,1 1797.697673,1484.026095" fill="none" stroke ="red" stroke-width="1" />
<path d="M 1898.578361,1483.724107 A41.916262,14.630591 -21.564718 1,1 1897.697673,1484.026095" fill="none" stroke ="red" stroke-width="1" />
<path d="M 98.499407,1687.907506 A41.963551,11.021883 -15.948134 1,1 97.578378,1688.153275" fill="none" stroke ="red" stroke-width="1" />
<path d="M 198.499407,1687.907506 A41.963551,11.021883 -15.948134 1,1 197.578378,1688.153275" fill="none" stroke ="red" stroke-width="1" />
<path d="M 298.499407,1687.907506 A41.963551,11.021883 -15.948134 1,1 297.578378,1688.153275" fill="none" stroke ="red" stroke-width="1" />
<path d="M 398.499407,1687.907506 A41.963551,11.021883 -15.948134 1,1 397.578378,1688.153275" fill="none" stroke ="red" stroke-width="1" />
<path d="M 498.499407,1687.907506 A41.963551,11.021883 -15.948134 1,1 497.578378,1688.153275" fill="none" stroke ="red" stroke-width="1" />
<path d="M 598.499407,1687.907506 A41.963551,11.021883 -15.948134 1,1 597.578378,1688.153275" fill="none" stroke ="red" stroke-width="1" />
<path d="M 698.499407,1687.907506 A41.963551,11.021883 -15.948134 1,1 697.578378,1688.153275" fill="none" stroke ="red" stroke-width="1" />
<path d="M 798.499407,1687.907506 A41.963551,11.021883 -15.948134 1,1 797.578378,1688.153275" fill="none" stroke ="red" stroke-width="1" />
<path d="M 898.499407,1687.907506 A41.963551,11.021883 -15.948134 1,1 897.578378,1688.153275" fill="none" stroke ="red" stroke-width="1" />
<path d="M 998.499407,1687.907506 A41.963551,11.021883 -15.948134 1,1 997.578378,1688.153275" fill="none" stroke ="red" stroke-width="1" />
<path d="M 1098.499407,1687.907506 A41.963551,11.021883 -15.948134 1,1 1097.578378,1688.153275" fill="none" stroke ="red" stroke-width="1" />
<path d="M 1198.499407,1687.907506 A41.963551,11.021883 -15.948134 1,1 1197.578378,1688.153275" fill="none" stroke ="red" stroke-width="1" />
<path d="M 1298.499407,1687.907506 A41.963551,11.021883 -15.948134 1,1 1297.578378,1688.153275" fill="none" stroke ="red" stroke-width="1" />
<path d="M 1398.499407,1687.907506 A41.963551,11.021883 -15.948134 1,1 1397.578378,1688.153275" fill="none" stroke ="red" stroke-width="1" />
<path d="M 1498.499407,1687.907506 A41.963551,11.021883 -15.948134 1,1 1497.578378,1688.153275" fill="none" stroke ="red" stroke-width="1" />
<path d="M 1598.499407,1687.907506 A41.963551,11.021883 -15.948134 1,1 1597.578378,1688.153275" fill="none" stroke ="red" stroke-width="1" />
<path d="M 1698.499407,1687.907506 A41.963551,11.021883 -15.948134 1,1 1697.578378,1688.153275" fill="none" stroke ="red" stroke-width="1" />
<path d="M 1798.499407,1687.907506 A41.963551,11.021883 -15.948134 1,1 1797.578378,1688.153275" fill="none" stroke ="red" stroke-width="1" />
<path d="M 1898.499407,1687.907506 A41.963551,11.021883 -15.948134 1,1 1897.578378,1688.153275" fill="none" stroke ="red" stroke-width="1" />
<path d="M 98.484095,1890.294014 A41.882490,8.845792 -12.599296 1,1 97.128883,1890.586843" fill="none" stroke ="red" stroke-width="1" />
<path d="M 198.484095,1890.294014 A41.882490,8.845792 -12.599296 1,1 197.128883,1890.586843" fill="none" stroke ="red" stroke-width="1" />
<path d="M 298.484095,1890.294014 A41.882490,8.845792 -12.599296 1,1 297.128883,1890.586843" fill="none" stroke ="red" stroke-width="1" />
<path d="M 398.484095,1890.294014 A41.882490,8.845792 -12.599296 1,1 397.128883,1890.586843" fill="none" stroke ="red" stroke-width="1" />
<path d="M 498.484095,1890.294014 A41.882490,8.845792 -12.599296 1,1 497.128883,1890.586843" fill="none" stroke ="red" stroke-width="1" />
<path d="M 598.484095,1890.294014 A41.882490,8.845792 -12.599296 1,1 597.128883,1890.586843" fill="none" stroke ="red" stroke-width="1" />
<path d="M 698.484095,1890.294014 A41.882490,8.845792 -12.599296 1,1 697.128883,1890.586843" fill="none" stroke ="red" stroke-width="1" />
<path d="M 798.484095,1890.294014 A41.882490,8.845792 -12.599296 1,1 797.128883,1890.586843" fill="none" stroke ="red" stroke-width="1" />
<path d="M 898.484095,1890.294014 A41.882490,8.845792 -12.599296 1,1 897.128883,1890.586843" fill="none" stroke ="red" stroke-width="1" />
<path d="M 998.484095,1890.294014 A41.882490,8.845792 -12.599296 1,1 997.128883,1890.586843" fill="none" stroke ="red" stroke-width="1" />
<path d="M 1098.484095,1890.294014 A41.882490,8.845792 -12.599296 1,1 1097.128883,1890.586843" fill="none" stroke ="red" stroke-width="1" />
<path d="M 1198.484095,1890.294014 A41.882490,8.845792 -12.599296 1,1 1197.128883,1890.586843" fill="none" stroke ="red" stroke-width="1" />
<path d="M 1298.484095,1890.294014 A41.882490,8.845792 -12.599296 1,1 1297.128883,1890.586843" fill="none" stroke ="red" stroke-width="1" />
<path d="M 1398.484095,1890.294014 A41.882490,8.845792 -12.599296 1,1 1397.128883,1890.586843" fill="none" stroke ="red" stroke-width="1" />
<path d="M 1498.484095,1890.294014 A41.882490,8.845792 -12.599296 1,1 1497.128883,1890.586843" fill="none" stroke ="red" stroke-width="1" />
<path d="M 1598.484095,1890.294014 A41.882490,8.845792 -12.599296 1,1 1597.128883,1890.586843" fill="none" stroke ="red" stroke-width="1" />
<path d="M 1698.484095,1890.294014 A41.882490,8.845792 -12.599296 1,1 1697.128883,1890.586843" fill="none" stroke ="red" stroke-width="1" />
<path d="M 1798.484095,1890.294014 A41.882490,8.845792 -12.599296 1,1 1797.128883,1890.586843" fill="none" stroke ="red" stroke-width="1" />
<path d="M 1898.484095,1890.294014 A41.882490,8.845792 -12.599296 1,1 1897.128883,1890.586843" fill="none" stroke ="red" stroke-width="1" />
<path d="M 60.435169,384.151352 A41.702505,12.599737 18.256698 1,1 58.596003,387.963057" fill="none" stroke ="red" stroke-width="1" />
<path d="M 160.435169,384.151352 A41.702505,12.599737 18.256698 1,1 158.596003,387.963057" fill="none" stroke ="red" stroke-width="1" />
<path d="M 260.435169,384.151352 A41.702505,12.599737 18.256698 1,1 258.596003,387.963057" fill="none" stroke ="red" stroke-width="1" />
<path d="M 360.435169,384.151352 A41.702505,12.599737 18.256698 1,1 358.596003,387.963057" fill="none" stroke ="red" stroke-width="1" />
<path d="M 460.435169,384.151352 A41.702505,12.599737 18.256698 1,1 458.596003,387.963057" fill="none" stroke ="red" stroke-width="1" />
<path d="M 560.435169,384.151352 A41.702505,12.599737 18.256698 1,1 558.596003,387.963057" fill="none" stroke ="red" stroke-width="1" />
<path d="M 660.435169,384.151352 A41.702505,12.599737 18.256698 1,1 658.596003,387.963057" fill="none" stroke ="red" stroke-width="1" />
<path d="M 760.435169,384.151352 A41.702505,12.599737 18.256698 1,1 758.596003,387.963057" fill="none" stroke ="red" stroke-width="1" />
<path d="M 860.435169,384.151352 A41.702505,12.599737 18.256698 1,1 858.596003,387.963057" fill="none" stroke ="red" stroke-width="1" />
<path d="M 960.435169,384.151352 A41.702505,12.599737 18.256698 1,1 958.596003,387.963057" fill="none" stroke ="red" stroke-width="1" />
<path d="M 1060.435169,384.151352 A41.702505,12.599737 18.256698 1,1 1058.596003,387.963057" fill="none" stroke ="red" stroke-width="1" />
<path d="M 1160.435169,384.151352 A41.702505,12.599737 18.256698 1,1 1158.596003,387.963057" fill="none" stroke ="red" stroke-width="1" />
<path d="M 1260.435169,384.151352 A41.702505,12.599737 18.256698 1,1 1258.596003,387.963057" fill="none" stroke ="red" stroke-width="1" />
<path d="M 1360.435169,384.151352 A41.702505,12.599737 18.256698 1,1 1358.596003,387.963057" fill="none" stroke ="red" stroke-width="1" />
<path d="M 1460.435169,384.151352 A41.702505,12.599737 18.256698 1,1 1458.596003,387.963057" fill="none" stroke ="red" stroke-width="1" />
<path d="M 1560.435169,384.151352 A41.702505,12.599737 18.256698 1,1 1558.596003,387.963057" fill="none" stroke ="red" stroke-width="1" />
<path d="M 1660.435169,384.151352 A41.702505,12.599737 18.256698 1,1 1658.596003,387.963057" fill="none" stroke ="red" stroke-width="1" />
<path d="M 1760.435169,384.151352 A41.702505,12.599737 18.256698 1,1 1758.596003,387.963057" fill="none" stroke ="red" stroke-width="1" />
<path d="M 1860.435169,384.151352 A41.702505,12.599737 18.256698 1,1 1858.596003,387.963057" fill="none" stroke ="red" stroke-width="1" />
<path d="M 97.206261,209.136286 A41.866357,9.770270 13.851958 1,1 98.367260,209.409825" fill="none" stroke ="red" stroke-width="1" />
<path d="M 197.206261,209.136286 A41.866357,9.770270 13.851958 1,1 198.367260,209.409825" fill="none" stroke ="red" stroke-width="1" />
<path d="M 297.206261,209.136286 A41.866357,9.770270 13.851958 1,1 298.367260,209.409825" fill="none" stroke ="red" stroke-width="1" />
<path d="M 397.206261,209.136286 A41.866357,9.770270 13.851958 1,1 398.367260,209.409825" fill="none" stroke ="red" stroke-width="1" />
<path d="M 497.206261,209.136286 A41.866357,9.770270 13.851958 1,1 498.367260,209.409825" fill="none" stroke ="red" stroke-width="1" />
<path d="M 597.206261,209.136286 A41.866357,9.770270 13.851958 1,1 598.367260,209.409825" fill="none" stroke ="red" stroke-width="1" />
<path d="M 697.206261,209.136286 A41.866357,9.770270 13.851958 1,1 698.367260,209.409825" fill="none" stroke ="red" stroke-width="1" />
<path d="M 797.206261,209.136286 A41.866357,9.770270 13.851958 1,1 798.367260,209.409825" fill="none" stroke ="red" stroke-width="1" />
<path d="M 897.206261,209.136286 A41.866357,9.770270 13.851958 1,1 898.367260,209.409825" fill="none" stroke ="red" stroke-width="1" />
<path d="M 997.206261,209.136286 A41.866357,9.770270 13.851958 1,1 998.367260,209.409825" fill="none" stroke ="red" stroke-width="1" />
<path d="M 1097.206261,209.136286 A41.866357,9.770270 13.851958 1,1 1098.367260,209.409825" fill="none" stroke ="red" stroke-width="1" />
<path d="M 1197.206261,209.136286 A41.866357,9.770270 13.851958 1,1 1198.367260,209.409825" fill="none" stroke ="red" stroke-width="1" />
<path d="M 1297.206261,209.136286 A41.866357,9.770270 13.851958 1,1 1298.367260,209.409825" fill="none" stroke ="red" stroke-width="1" />
<path d="M 1397.206261,209.136286 A41.866357,9.770270 13.851958 1,1 1398.367260,209.409825" fill="none" stroke ="red" stroke-width="1" />
<path d="M 1497.206261,209.136286 A41.866357,9.770270 13.851958 1,1 1498.367260,209.409825" fill="none" stroke ="red" stroke-width="1" />
<path d="M 1597.206261,209.136286 A41.866357,9.770270 13.851958 1,1 1598.367260,209.409825" fill="none" stroke ="red" stroke-width="1" />
<path d="M 1697.206261,209.136286 A41.866357,9.770270 13.851958 1,1 1698.367260,209.409825" fill="none" stroke ="red" stroke-width="1" />
<path d="M 1797.206261,209.136286 A41.866357,9.770270 13.851958 1,1 1798.367260,209.409825" fill="none" stroke ="red" stroke-width="1" />
<path d="M 1897.206261,209.136286 A41.866357,9.770270 13.851958 1,1 1898.367260,209.409825" fill="none" stroke ="red" stroke-width="1" />
<path d="M 100.207249,1788.938225 A41.832428,9.752115 -13.922873 1,1 92.244551,1790.899612" fill="none" stroke ="red" stroke-width="1" />
<path d="M 200.207249,1788.938225 A41.832428,9.752115 -13.922873 1,1 192.244551,1790.899612" fill="none" stroke ="red" stroke-width="1" />
<path d="M 300.207249,1788.938225 A41.832428,9.752115 -13.922873 1,1 292.244551,1790.899612" fill="none" stroke ="red" stroke-width="1" />
<path d="M 400.207249,1788.938225 A41.832428,9.752115 -13.922873 1,1 392.244551,1790.899612" fill="none" stroke ="red" stroke-width="1" />
<path d="M 500.207249,1788.938225 A41.832428,9.752115 -13.922873 1,1 492.244551,1790.899612" fill="none" stroke ="red" stroke-width="1" />
<path d="M 600.207249,1788.938225 A41.832428,9.752115 -13.922873 1,1 592.244551,1790.899612" fill="none" stroke ="red" stroke-width="1" />
<path d="M 700.207249,1788.938225 A41.832428,9.752115 -13.922873 1,1 692.244551,1790.899612" fill="none" stroke ="red" stroke-width="1" />
<path d="M 800.207249,1788.938225 A41.832428,9.752115 -13.922873 1,1 792.244551,1790.899612" fill="none" stroke ="red" stroke-width="1" />
<path d="M 900.207249,1788.938225 A41.832428,9.752115 -13.922873 1,1 892.244551,1790.899612" fill="none" stroke ="red" stroke-width="1" />
<path d="M 1000.207249,1788.938225 A41.832428,9.752115 -13.922873 1,1 992.244551,1790.899612" fill="none" stroke ="red" stroke-width="1" />
<path d="M 1100.207249,1788.938225 A41.832428,9.752115 -13.922873 1,1 1092.244551,1790.899612" fill="none" stroke ="red" stroke-width="1" />
<path d="M 1200.207249,1788.938225 A41.832428,9.752115 -13.922873 1,1 1192.244551,1790.899612" fill="none" stroke ="red" stroke-width="1" />
<path d="M 1300.207249,1788.938225 A41.832428,9.752115 -13.922873 1,1 1292.244551,1790.899612" fill="none" stroke ="red" stroke-width="1" />
<path d="M 1400.207249,1788.938225 A41.832428,9.752115 -13.922873 1,1 1392.244551,1790.899612" fill="none" stroke ="red" stroke-width="1" />
<path d="M 1500.207249,1788.938225 A41.832428,9.752115 -13.922873 1,1 1492.244551,1790.899612" fill="none" stroke ="red" stroke-width="1" />
<path d="M 1600.207249,1788.938225 A41.832428,9.752115 -13.922873 1,1 1592.244551,1790.899612" fill="none" stroke ="red" stroke-width="1" />
<path d="M 1700.207249,1788.938225 A41.832428,9.752115 -13.922873 1,1 1692.244551,1790.899612" fill="none" stroke ="red" stroke-width="1" />
<path d="M 1800.207249,1788.938225 A41.832428,9.752115 -13.922873 1,1 1792.244551,1790.899612" fill="none" stroke ="red" stroke-width="1" />
<path d="M 1900.207249,1788.938225 A41.832428,9.752115 -13.922873 1,1 1892.244551,1790.899612" fill="none" stroke ="red" stroke-width="1" />
<path d="M 98.358247,1586.204605 A41.810917,12.566888 -18.349845 1,1 97.451120,1586.479125" fill="none" stroke ="red" stroke-width="1" />
<path d="M 198.358247,1586.204605 A41.810917,12.566888 -18.349845 1,1 197.451120,1586.479125" fill="none" stroke ="red" stroke-width="1" />
<path d="M 298.358247,1586.204605 A41.810917,12.566888 -18.349845 1,1 297.451120,1586.479125" fill="none" stroke ="red" stroke-width="1" />
<path d="M 398.358247,1586.204605 A41.810917,12.566888 -18.349845 1,1 397.451120,1586.479125" fill="none" stroke ="red" stroke-width="1" />
<path d="M 498.358247,1586.204605 A41.810917,12.566888 -18.349845 1,1 497.451120,1586.479125" fill="none" stroke ="red" stroke-width="1" />
<path d="M 598.358247,1586.204605 A41.810917,12.566888 -18.349845 1,1 597.451120,1586.479125" fill="none" stroke ="red" stroke-width="1" />
<path d="M 698.358247,1586.204605 A41.810917,12.566888 -18.349845 1,1 697.451120,1586.479125" fill="none" stroke ="red" stroke-width="1" />
<path d="M 798.358247,1586.204605 A41.810917,12.566888 -18.349845 1,1 797.451120,1586.479125" fill="none" stroke ="red" stroke-width="1" />
<path d="M 898.358247,1586.204605 A41.810917,12.566888 -18.349845 1,1 897.451120,1586.479125" fill="none" stroke ="red" stroke-width="1" />
<path d="M 998.358247,1586.204605 A41.810917,12.566888 -18.349845 1,1 997.451120,1586.479125" fill="none" stroke ="red" stroke-width="1" />
<path d="M 1098.358247,1586.204605 A41.810917,12.566888 -18.349845 1,1 1097.451120,1586.479125" fill="none" stroke ="red" stroke-width="1" />
<path d="M 1198.358247,1586.204605 A41.810917,12.566888 -18.349845 1,1 1197.451120,1586.479125" fill="none" stroke ="red" stroke-width="1" />
<path d="M 1298.358247,1586.204605 A41.810917,12.566888 -18.349845 1,1 1297.451120,1586.479125" fill="none" stroke ="red" stroke-width="1" />
<path d="M 1398.358247,1586.204605 A41.810917,12.566888 -18.349845 1,1 1397.451120,1586.479125" fill="none" stroke ="red" stroke-width="1" />
<path d="M 1498.358247,1586.204605 A41.810917,12.566888 -18.349845 1,1 1497.451120,1586.479125" fill="none" stroke ="red" stroke-width="1" />
<path d="M 1598.358247,1586.204605 A41.810917,12.566888 -18.349845 1,1 1597.451120,1586.479125" fill="none" stroke ="red" stroke-width="1" />
<path d="M 1698.358247,1586.204605 A41.810917,12.566888 -18.349845 1,1 1697.451120,1586.479125" fill="none" stroke ="red" stroke-width="1" />
<path d="M 1798.358247,1586.204605 A41.810917,12.566888 -18.349845 1,1 1797.451120,1586.479125" fill="none" stroke ="red" stroke-width="1" />
<path d="M 1898.358247,1586.204605 A41.810917,12.566888 -18.349845 1,1 1897.451120,1586.479125" fill="none" stroke ="red" stroke-width="1" />
<line x1="93.717231" y1="1791.347323" x2="102.432149" y2="1788.730488"  fill="none" stroke ="green" stroke-width="1" />
<line x1="193.717231" y1="1791.347323" x2="202.432149" y2="1788.730488"  fill="none" stroke ="green" stroke-width="1" />
<line x1="293.717231" y1="1791.347323" x2="302.432149" y2="1788.730488"  fill="none" stroke ="green" stroke-width="1" />
<line x1="393.717231" y1="1791.347323" x2="402.432149" y2="1788.730488"  fill="none" stroke ="green" stroke-width="1" />
<line x1="493.717231" y1="1791.347323" x2="502.432149" y2="1788.730488"  fill="none" stroke ="green" stroke-width="1" />
<line x1="593.717231" y1="1791.347323" x2="602.432149" y2="1788.730488"  fill="none" stroke ="green" stroke-width="1" />
<line x1="693.717231" y1="1791.347323" x2="702.432149" y2="1788.730488"  fill="none" stroke ="green" stroke-width="1" />
<line x1="793.717231" y1="1791.347323" x2="802.432149" y2="1788.730488"  fill="none" stroke ="green" stroke-width="1" />
<line x1="893.717231" y1="1791.347323" x2="902.432149" y2="1788.730488"  fill="none" stroke ="green" stroke-width="1" />
<line x1="993.717231" y1="1791.347323" x2="1002.432149" y2="1788.730488"  fill="none" stroke ="green" stroke-width="1" />
<line x1="1093.717231" y1="1791.347323" x2="1102.432149" y2="1788.730488"  fill="none" stroke ="green" stroke-width="1" />
<line x1="1193.717231" y1="1791.347323" x2="1202.432149" y2="1788.730488"  fill="none" stroke ="green" stroke-width="1" />
<line x1="1293.717231" y1="1791.347323" x2="1302.432149" y2="1788.730488"  fill="none" stroke ="green" stroke-width="1" />
<line x1="1393.717231" y1="1791.347323" x2="1402.432149" y2="1788.730488"  fill="none" stroke ="green" stroke-width="1" />
<line x1="1493.717231" y1="1791.347323" x2="1502.432149" y2="1788.730488"  fill="none" stroke ="green" stroke-width="1" />
<line x1="1593.717231" y1="1791.347323" x2="1602.432149" y2="1788.730488"  fill="none" stroke ="green" stroke-width="1" />
<line x1="1693.717231" y1="1791.347323" x2="1702.432149" y2="1788.730488"  fill="none" stroke ="green" stroke-width="1" />
<line x1="1793.717231" y1="1791.347323" x2="1802.432149" y2="1788.730488"  fill="none" stroke ="green" stroke-width="1" />
<line x1="1893.717231" y1="1791.347323" x2="1902.432149" y2="1788.730488"  fill="none" stroke ="green" stroke-width="1" />
</svg>
