<?xml version="1.0" standalone="no"?>
<!DOCTYPE svg PUBLIC "-//W3C//DTD SVG 1.1//EN"
 "http://www.w3.org/Graphics/SVG/1.1/DTD/svg11.dtd">
<svg width="2000px" height="2000px" version="1.1"
 xmlns="http://www.w3.org/2000/svg" xmlns:xlink="http://www.w3.org/1999/xlink">
<path d="M 641.888528,69.280465 A57.895896,57.895896 0.000000 0,1 662.057256,69.712426" fill="none" stroke ="blue" stroke-width="1" />
<path d="M 664.910238,70.264496 A115.364317,115.364317 0.000000 0,1 717.734130,85.463590" fill="none" stroke ="blue" stroke-width="1" />
<path d="M 693.060402,90.191446 A113.421580,113.421580 0.000000 0,1 637.645775,73.578876" fill="none" stroke ="blue" stroke-width="1" />
<path d="M 1890.009405,105.219502 A103.451889,103.451889 0.000000 0,1 1951.019873,121.969581" fill="none" stroke ="blue" stroke-width="1" />
<path d="M 257.196582,140.131718 A39.738144,8.808108 13.048402 1,1 258.352098,140.389599" fill="none" stroke ="red" stroke-width="1" />
<path d="M 697.188715,149.173766 A39.866883,8.863046 13.163973 1,1 698.345474,149.434220" fill="none" stroke ="red" stroke-width="1" />
<path d="M 1549.701751,131.332651 A39.892516,8.854045 13.189036 1,1 1547.805394,130.917687" fill="none" stroke ="red" stroke-width="1" />
<path d="M 570.739927,156.148694 A39.905518,9.057800 13.325957 1,1 569.793560,155.936611" fill="none" stroke ="red" stroke-width="1" />
<path d="M 1920.860786,208.544269 A40.020678,9.510578 14.075198 1,1 1884.940665,204.596721" fill="none" stroke ="red" stroke-width="1" />
<path d="M 1130.166221,261.246986 A39.434107,9.971332 15.566442 1,1 1122.473494,246.008038" fill="none" stroke ="red" stroke-width="1" />
<path d="M 1126.929944,246.304999 A39.574118,10.115357 15.464083 1,1 1131.426879,261.144695" fill="none" stroke ="red" stroke-width="1" />
<path d="M 1205.992643,279.951182 A94.239542,94.239542 0.000000 0,1 1281.440789,301.651028" fill="none" stroke ="blue" stroke-width="1" />
<path d="M 387.209093,321.248977 A40.021945,10.760808 16.311990 1,1 388.383734,321.571352" fill="none" stroke ="red" stroke-width="1" />
<path d="M 506.450232,329.371369 A40.137811,10.838704 16.384759 1,1 507.370593,329.623678" fill="none" stroke ="red" stroke-width="1" />
<path d="M 1587.260443,376.121281 A39.854260,11.559241 17.580058 1,1 1588.438113,376.465409" fill="none" stroke ="red" stroke-width="1" />
<path d="M 1735.605304,352.369261 A39.854262,11.559241 17.580066 1,1 1734.435913,352.036091" fill="none" stroke ="red" stroke-width="1" />
<path d="M 485.161559,382.445680 A39.971501,11.601575 17.724888 1,1 486.082076,382.711026" fill="none" stroke ="red" stroke-width="1" />
<path d="M 1063.487684,388.353976 A39.968229,11.706538 17.762093 1,1 1065.313447,388.883666" fill="none" stroke ="red" stroke-width="1" />
<path d="M 0.023734,341.209206 A39.530040,11.429724 17.900678 1,1 0.236703,356.163061" fill="none" stroke ="red" stroke-width="1" />
<path d="M 1587.304400,482.101736 A39.790360,13.283278 20.596936 1,1 1588.197608,482.401431" fill="none" stroke ="red" stroke-width="1" />
<path d="M 1505.685935,470.923056 A39.990673,13.695123 21.300068 1,1 1504.217834,470.432477" fill="none" stroke ="red" stroke-width="1" />
<path d="M 375.271017,525.243841 A39.809025,14.277371 22.180382 1,1 375.193682,525.216000" fill="none" stroke ="red" stroke-width="1" />
<path d="M 1507.590973,563.065986 A39.741445,15.990917 25.362811 1,1 1507.737245,563.122623" fill="none" stroke ="red" stroke-width="1" />
<path d="M 1531.104162,641.157013 A26.744573,26.744573 0.000000 0,1 1501.096787,640.860189" fill="none" stroke ="blue" stroke-width="1" />
<path d="M 365.443358,606.366468 A39.817881,17.246183 27.995610 1,1 364.595295,606.022887" fill="none" stroke ="red" stroke-width="1" />
<ellipse transform="translate(1461.372739 701.367268) rotate(33.682497)" rx="39.646114" ry="19.710694" stroke="red" fill="none" stroke-width= "1" /> 
<path d="M 898.447067,726.080661 A39.619039,19.796486 33.911089 1,1 899.287455,726.485430" fill="none" stroke ="red" stroke-width="1" />
<ellipse transform="translate(1172.383175 754.378766) rotate(39.412923)" rx="39.753754" ry="21.610050" stroke="red" fill="none" stroke-width= "1" /> 
<path d="M 753.309430,732.380833 A39.656514,19.983744 34.848469 1,1 754.120195,732.781524" fill="none" stroke ="red" stroke-width="1" />
<ellipse transform="translate(945.345786 767.358561) rotate(40.614324)" rx="39.743014" ry="22.073878" stroke="red" fill="none" stroke-width= "1" /> 
<path d="M 493.169359,807.525585 A39.779881,23.730415 46.779069 1,1 493.880559,809.164300" fill="none" stroke ="red" stroke-width="1" />
<path d="M 435.086718,794.304642 A39.815733,24.359989 49.918178 1,1 432.002949,794.124779" fill="none" stroke ="red" stroke-width="1" />
<ellipse transform="translate(1097.373112 828.389114) rotate(49.914205)" rx="39.820889" ry="24.361387" stroke="red" fill="none" stroke-width= "1" /> 
<path d="M 89.376056,847.559447 A39.937619,25.149049 53.473527 1,1 89.975731,849.293562" fill="none" stroke ="red" stroke-width="1" />
<path d="M 1997.031719,960.489414 A39.432745,25.845634 71.278827 1,1 1981.086689,884.027427" fill="none" stroke ="red" stroke-width="1" />
<path d="M 1981.988098,883.432580 A26.489815,26.489815 0.000000 0,1 1997.857870,888.878015" fill="none" stroke ="blue" stroke-width="1" />
<ellipse transform="translate(1556.355686 937.378477) rotate(73.458535)" rx="40.094636" ry="27.603909" stroke="red" fill="none" stroke-width= "1" /> 
<ellipse transform="translate(1396.370935 987.376412) rotate(87.155325)" rx="39.994651" ry="28.306881" stroke="red" fill="none" stroke-width= "1" /> 
<path d="M 992.011018,981.019634 A40.018470,28.264052 85.238414 1,1 1006.316425,1015.764324" fill="none" stroke ="red" stroke-width="1" />
<ellipse transform="translate(870.368734 1025.388882) rotate(-82.290823)" rx="40.053957" ry="28.166131" stroke="red" fill="none" stroke-width= "1" /> 
<path d="M 1005.627550,1016.986653 A39.969458,28.232998 -84.897284 1,1 990.586710,981.115817" fill="none" stroke ="red" stroke-width="1" />
<ellipse transform="translate(220.387903 1121.367978) rotate(-58.703555)" rx="39.880910" ry="26.075232" stroke="red" fill="none" stroke-width= "1" /> 
<path d="M 382.813473,1103.695761 A39.858557,25.399668 -55.183338 1,1 377.124634,1103.870818" fill="none" stroke ="red" stroke-width="1" />
<ellipse transform="translate(1819.370370 1136.395284) rotate(-55.756530)" rx="39.720366" ry="25.500048" stroke="red" fill="none" stroke-width= "1" /> 
<ellipse transform="translate(97.382158 1164.387394) rotate(-50.452688)" rx="39.811244" ry="24.506115" stroke="red" fill="none" stroke-width= "1" /> 
<ellipse transform="translate(761.387319 1122.370364) rotate(-58.458786)" rx="39.899591" ry="25.999143" stroke="red" fill="none" stroke-width= "1" /> 
<path d="M 219.702044,1237.394630 A39.838564,20.849435 -37.117785 1,1 218.895153,1237.796219" fill="none" stroke ="red" stroke-width="1" />
<path d="M 1250.676031,1237.532214 A39.861366,20.789868 -37.087860 1,1 1249.074850,1238.277996" fill="none" stroke ="red" stroke-width="1" />
<path d="M 1135.846665,1211.910035 A39.840077,21.706715 -39.965202 1,1 1133.899159,1212.838038" fill="none" stroke ="red" stroke-width="1" />
<ellipse transform="translate(1660.390285 1296.367099) rotate(-33.645749)" rx="39.628517" ry="19.659428" stroke="red" fill="none" stroke-width= "1" /> 
<path d="M 1022.780231,1320.479019 A39.613339,19.624315 -33.718291 1,1 1024.437598,1319.750244" fill="none" stroke ="red" stroke-width="1" />
<ellipse transform="translate(1798.371148 1324.377839) rotate(-31.462481)" rx="39.802631" ry="18.621551" stroke="red" fill="none" stroke-width= "1" /> 
<path d="M 1054.730966,1396.311269 A39.871428,16.993323 -27.233044 1,1 1055.586040,1395.970289" fill="none" stroke ="red" stroke-width="1" />
<path d="M 1844.730966,1396.311269 A39.871428,16.993323 -27.233044 1,1 1845.586040,1395.970289" fill="none" stroke ="red" stroke-width="1" />
<path d="M 635.710480,1424.229881 A39.722691,16.167502 -25.716678 1,1 636.573942,1423.898494" fill="none" stroke ="red" stroke-width="1" />
<path d="M 1598.645750,1463.872394 A39.845628,14.403560 -22.460044 1,1 1597.773337,1464.180772" fill="none" stroke ="red" stroke-width="1" />
<ellipse transform="translate(815.378542 1483.338338) rotate(-22.274561)" rx="39.924706" ry="14.275664" stroke="red" fill="none" stroke-width= "1" /> 
<path d="M 1339.392014,1468.209234 A39.631259,14.507120 -22.815407 1,1 1322.786114,1453.610639" fill="none" stroke ="red" stroke-width="1" />
<path d="M 1824.539878,1555.522852 A39.683900,13.139394 -20.180544 1,1 1825.722238,1555.144423" fill="none" stroke ="red" stroke-width="1" />
<path d="M 340.667432,1533.211702 A39.650417,13.034577 -19.935961 1,1 338.603835,1533.864222" fill="none" stroke ="red" stroke-width="1" />
<path d="M 766.908922,1529.958860 A38.150500,38.150500 0.000000 0,1 798.241270,1507.668179" fill="none" stroke ="blue" stroke-width="1" />
<path d="M 845.395097,1506.338015 A80.586847,80.586847 0.000000 0,1 778.126832,1534.310634" fill="none" stroke ="blue" stroke-width="1" />
<path d="M 233.556155,1542.794359 A39.748536,12.821863 -19.562984 1,1 232.662067,1543.077725" fill="none" stroke ="red" stroke-width="1" />
<path d="M 465.251989,1621.470667 A40.096963,11.777069 -17.895569 1,1 511.674840,1614.747261" fill="none" stroke ="red" stroke-width="1" />
<path d="M 976.975504,1637.912510 A39.958710,11.626400 -17.819032 1,1 977.899459,1637.650120" fill="none" stroke ="red" stroke-width="1" />
<path d="M 515.817352,1629.247064 A63.783821,63.783821 0.000000 0,1 562.210881,1619.842149" fill="none" stroke ="blue" stroke-width="1" />
<path d="M 1587.541865,1664.023949 A40.127274,10.893042 -16.428979 1,1 1586.625686,1664.274420" fill="none" stroke ="red" stroke-width="1" />
<path d="M 1649.601521,1683.532183 A39.743831,10.652967 -15.994545 1,1 1648.509254,1683.832019" fill="none" stroke ="red" stroke-width="1" />
<path d="M 1200.782929,1680.160030 A40.060969,10.939640 -16.502024 1,1 1201.712032,1679.915381" fill="none" stroke ="red" stroke-width="1" />
<path d="M 269.598376,1719.397893 A39.842149,10.465075 -15.602800 1,1 270.765152,1719.098166" fill="none" stroke ="red" stroke-width="1" />
<path d="M 513.625998,1689.454092 A39.817452,10.493287 -15.674801 1,1 512.465843,1689.757911" fill="none" stroke ="red" stroke-width="1" />
<path d="M 996.251849,1751.059728 A39.870703,9.785673 -14.640679 1,1 995.314122,1751.286644" fill="none" stroke ="red" stroke-width="1" />
<path d="M 1922.300893,1796.266826 A39.943862,9.591085 -14.184704 1,1 1922.796433,1796.148840" fill="none" stroke ="red" stroke-width="1" />
<path d="M 260.854339,1816.347778 A39.791537,9.369428 -13.971959 1,1 261.801006,1816.132685" fill="none" stroke ="red" stroke-width="1" />
<path d="M 798.241770,1821.073820 A39.901143,9.077287 -13.341060 1,1 797.298205,1821.289618" fill="none" stroke ="red" stroke-width="1" />
<path d="M 105.634142,1838.387608 A39.937564,8.926622 -13.191929 1,1 105.331328,1838.456374" fill="none" stroke ="red" stroke-width="1" />
<path d="M 883.478976,1834.180832 A39.896604,8.962913 -13.208727 1,1 882.327773,1834.439510" fill="none" stroke ="red" stroke-width="1" />
<path d="M 375.406691,1907.041157 A120.016812,120.016812 0.000000 0,1 299.754238,1924.346602" fill="none" stroke ="blue" stroke-width="1" />
<path d="M 695.920419,1963.850075 A34.460793,34.460793 0.000000 0,1 710.059377,1965.836448" fill="none" stroke ="blue" stroke-width="1" />
<path d="M 1511.739958,1996.157206 A39.533584,7.319442 -10.485234 1,1 1548.252451,1997.494607" fill="none" stroke ="red" stroke-width="1" />
<path d="M 711.998392,1969.997190 A111.529466,111.529466 0.000000 0,1 651.021026,1984.581152" fill="none" stroke ="blue" stroke-width="1" />
<path d="M 799.942414,454.109433 A76.236715,76.236715 0.000000 0,1 738.073390,428.714608" fill="none" stroke ="blue" stroke-width="1" />
<path d="M 507.403095,510.848408 A39.878364,13.898452 21.602286 1,1 508.287877,511.155450" fill="none" stroke ="red" stroke-width="1" />
<path d="M 559.944556,1620.652288 A39.757950,11.172714 -17.360715 1,1 492.235777,1640.257664" fill="none" stroke ="red" stroke-width="1" />
<path d="M 296.230859,1920.361948 A118.615956,118.615956 0.000000 0,1 372.949693,1902.458651" fill="none" stroke ="blue" stroke-width="1" />
<line x1="1873.044934" y1="105.006754" x2="1888.275144" y2="103.034365"  fill="none" stroke ="green" stroke-width="1" />
<path d="M 1947.873001,126.133688 A109.102078,109.102078 0.000000 0,1 1870.034779,107.949658" fill="none" stroke ="blue" stroke-width="1" />
<path d="M 1956.300130,198.748823 A39.934496,9.358134 13.925355 1,1 1957.240194,198.971960" fill="none" stroke ="red" stroke-width="1" />
<ellipse transform="translate(591.371684 905.359214) rotate(65.169502)" rx="39.905220" ry="26.952907" stroke="red" fill="none" stroke-width= "1" /> 
<ellipse transform="translate(166.372022 1098.391787) rotate(-63.869968)" rx="39.878023" ry="26.675224" stroke="red" fill="none" stroke-width= "1" /> 
<path d="M 244.654990,1533.934604 A39.852595,13.483382 -20.913112 1,1 245.547374,1533.639765" fill="none" stroke ="red" stroke-width="1" />
<path d="M 599.850269,1597.497765 A39.982364,12.333589 -18.745082 1,1 600.761740,1597.221613" fill="none" stroke ="red" stroke-width="1" />
<ellipse transform="translate(1420.369698 793.365544) rotate(44.397315)" rx="39.861351" ry="23.066081" stroke="red" fill="none" stroke-width= "1" /> 
<ellipse transform="translate(459.368174 1057.379214) rotate(-74.279132)" rx="40.103269" ry="27.574056" stroke="red" fill="none" stroke-width= "1" /> 
<ellipse transform="translate(1014.376719 1151.364957) rotate(-52.732822)" rx="39.961201" ry="25.026057" stroke="red" fill="none" stroke-width= "1" /> 
<ellipse transform="translate(1876.372026 1298.383276) rotate(-33.583454)" rx="39.659374" ry="19.577128" stroke="red" fill="none" stroke-width= "1" /> 
<path d="M 776.338021,1535.067132 A6.700870,6.700870 0.000000 0,1 770.053357,1524.231838" fill="none" stroke ="blue" stroke-width="1" />
<path d="M 1868.010320,183.281886 A99.919700,99.919700 0.000000 0,1 1928.182379,200.734092" fill="none" stroke ="blue" stroke-width="1" />
<ellipse transform="translate(611.379483 1105.373178) rotate(-62.619938)" rx="39.998368" ry="26.512261" stroke="red" fill="none" stroke-width= "1" /> 
<path d="M 358.092189,708.021939 A39.855722,19.157264 32.812500 1,1 358.400089,704.989008" fill="none" stroke ="red" stroke-width="1" />
<path d="M 1279.534886,301.267544 A39.578581,10.179907 15.684820 1,1 1206.511214,280.481317" fill="none" stroke ="red" stroke-width="1" />
<path d="M 762.945898,423.229674 A74.713036,74.713036 0.000000 0,1 815.896055,447.096470" fill="none" stroke ="blue" stroke-width="1" />
<path d="M 160.692092,425.972827 A39.742903,12.807447 19.585193 1,1 159.244563,425.522704" fill="none" stroke ="red" stroke-width="1" />
<path d="M 149.594967,1167.216290 A39.853656,23.344888 -45.224938 1,1 148.840847,1167.609805" fill="none" stroke ="red" stroke-width="1" />
<path d="M 705.604005,1514.927844 A39.826015,13.253245 -20.616481 1,1 703.830322,1515.506120" fill="none" stroke ="red" stroke-width="1" />
<path d="M 1499.377342,641.845838 A39.743876,17.012493 27.359232 1,1 1528.815556,640.645427" fill="none" stroke ="red" stroke-width="1" />
<ellipse transform="translate(1291.373178 1108.380412) rotate(-61.842018)" rx="39.991578" ry="26.442445" stroke="red" fill="none" stroke-width= "1" /> 
<path d="M 489.988539,1636.982785 A65.657988,65.657988 0.000000 0,1 441.650123,1646.889833" fill="none" stroke ="blue" stroke-width="1" />
<path d="M 873.620522,1529.266856 A39.754503,13.083122 -20.106423 1,1 871.009989,1530.032631" fill="none" stroke ="red" stroke-width="1" />
<path d="M 741.887468,421.539831 A43.673346,43.673346 0.000000 0,1 762.624582,421.536995" fill="none" stroke ="blue" stroke-width="1" />
<path d="M 298.150536,936.986255 A39.898808,26.580197 64.766445 1,1 265.038187,867.708571" fill="none" stroke ="red" stroke-width="1" />
<path d="M 1331.137586,1445.971888 A85.653709,85.653709 0.000000 0,1 1375.086678,1426.663350" fill="none" stroke ="blue" stroke-width="1" />
<path d="M 1375.908694,1426.809141 A11.029591,5.731752 10.163516 0,1 1394.585276,1434.744994" fill="none" stroke ="red" stroke-width="1" />
<line x1="1885.670591" y1="204.817917" x2="1850.677488" y2="190.496747"  fill="none" stroke ="green" stroke-width="1" />
<ellipse transform="translate(937.363011 861.377972) rotate(55.913753)" rx="39.655025" ry="25.528459" stroke="red" fill="none" stroke-width= "1" /> 
<path d="M 265.620940,867.657208 A39.848799,26.563255 64.177232 1,1 297.999985,936.998697" fill="none" stroke ="red" stroke-width="1" />
<path d="M 1395.419404,1436.670777 A67.673943,67.673943 0.000000 0,1 1340.961485,1465.878194" fill="none" stroke ="blue" stroke-width="1" />
<path d="M 1848.733995,183.525230 A29.181408,29.181408 0.000000 0,1 1867.704941,181.330742" fill="none" stroke ="blue" stroke-width="1" />
<path d="M 818.050115,1500.110128 A34.566907,34.566907 0.000000 0,1 845.208359,1499.479248" fill="none" stroke ="blue" stroke-width="1" />
<path d="M 650.365367,1986.206086 A21.168650,21.168650 0.000000 0,1 632.794531,1983.761986" fill="none" stroke ="blue" stroke-width="1" />
<line x1="716.916174" y1="92.121776" x2="696.828218" y2="92.674371"  fill="none" stroke ="green" stroke-width="1" />
<line x1="813.143934" y1="455.741411" x2="802.807449" y2="457.422620"  fill="none" stroke ="green" stroke-width="1" />
<path d="M 438.351895,1641.302011 A52.691149,52.691149 0.000000 0,1 466.309045,1624.318181" fill="none" stroke ="blue" stroke-width="1" />
<path d="M 632.682758,1982.851563 A8.862595,8.862595 0.000000 0,1 638.532933,1978.232828" fill="none" stroke ="blue" stroke-width="1" />
<line x1="1323.848521" y1="1453.906912" x2="1331.262207" y2="1446.241262"  fill="none" stroke ="green" stroke-width="1" />
</svg>
